<svg xmlns="http://www.w3.org/2000/svg" xmlns:xlink="http://www.w3.org/1999/xlink" viewBox="0 0 2400 1650"><defs><linearGradient id="linear-gradient" x1="162.02" y1="681.35" x2="290.75" y2="681.35" gradientTransform="translate(1662.29 609.06) rotate(150.16)" gradientUnits="userSpaceOnUse"><stop offset="0.07" stop-color="#fff"/><stop offset="1" stop-color="#ffdb59"/></linearGradient><linearGradient id="linear-gradient-2" x1="471.9" y1="941.72" x2="623.3" y2="941.72" gradientTransform="translate(1127.7 1360.58) rotate(-149.39)" xlink:href="#linear-gradient"/><linearGradient id="linear-gradient-3" x1="228.46" y1="858.97" x2="417.85" y2="858.97" gradientTransform="translate(1500 1052) rotate(180)" xlink:href="#linear-gradient"/><linearGradient id="linear-gradient-4" x1="837.59" y1="305.95" x2="948.29" y2="240.47" gradientTransform="matrix(1, 0, 0, 1, 0, 0)" xlink:href="#linear-gradient"/><linearGradient id="linear-gradient-5" x1="809.95" y1="86.67" x2="931.28" y2="156.28" gradientTransform="matrix(1, 0, 0, 1, 0, 0)" xlink:href="#linear-gradient"/><linearGradient id="linear-gradient-6" x1="739.38" y1="193.03" x2="928.77" y2="193.03" gradientTransform="matrix(1, 0, 0, 1, 0, 0)" xlink:href="#linear-gradient"/></defs><g id="Ñëîé_1" data-name="Ñëîé 1"><path d="M2300.12,1009.05a3.92,3.92,0,0,1,2.45-2.31,3.67,3.67,0,0,1,3.31-.14,4.45,4.45,0,0,1,2.31,2.45,4,4,0,0,1,0,3.31,184.58,184.58,0,0,1-13.68,26.5,4.64,4.64,0,0,1-2.74,1.87,4.41,4.41,0,0,1-3.31-.43,4.53,4.53,0,0,1-1.87-2.74,4.09,4.09,0,0,1,.57-3.31A180,180,0,0,0,2300.12,1009.05Zm10.8-59.63a3.5,3.5,0,0,1,3.17.72,4.08,4.08,0,0,1,1.87,2.74,97.32,97.32,0,0,1,.44,30.39,4,4,0,0,1-1.73,2.74,4.68,4.68,0,0,1-3.17.86,4.1,4.1,0,0,1-2.88-1.73,4.15,4.15,0,0,1-.72-3.17,85.14,85.14,0,0,0-.43-27.5,3.71,3.71,0,0,1,.72-3.32A3.66,3.66,0,0,1,2310.92,949.42Zm-25.34-49.68a4,4,0,0,1,3,1.44A113.8,113.8,0,0,1,2306,924.8a5,5,0,0,1,.29,3.31,5.35,5.35,0,0,1-2,2.59,5,5,0,0,1-3.31.29,4.59,4.59,0,0,1-2.6-2,112.83,112.83,0,0,0-16.12-21.89,4.94,4.94,0,0,1-1.16-3.16,4,4,0,0,1,1.44-3A4.43,4.43,0,0,1,2285.58,899.74Zm-42.2-33.56a235.86,235.86,0,0,1,23.76,15.7,4.56,4.56,0,0,1,1.73,2.88,4.68,4.68,0,0,1-.86,3.17,4.56,4.56,0,0,1-2.88,1.73,4.68,4.68,0,0,1-3.17-.87,245.7,245.7,0,0,0-22.9-15.12,3.93,3.93,0,0,1-2-2.59,4.48,4.48,0,0,1,.43-3.32,4,4,0,0,1,2.74-2A4.12,4.12,0,0,1,2243.38,866.18Zm-182.76-62.36a3.94,3.94,0,0,1-1.3,5.91,4.15,4.15,0,0,1-3.17.72q-13.39-2.9-27.36-5.62a4.64,4.64,0,0,1-2.88-1.87,3.72,3.72,0,0,1-.58-3.17,4.14,4.14,0,0,1,1.73-2.88,4,4,0,0,1,3.31-.58q14.12,2.59,27.66,5.62A3.83,3.83,0,0,1,2060.62,803.82ZM2186.92,844a3.88,3.88,0,0,1,2.45-2.3,3.37,3.37,0,0,1,3.17-.15q13.68,5.48,25.78,11.38a4.47,4.47,0,0,1,2.3,2.45,4,4,0,0,1-.28,3.31,4.45,4.45,0,0,1-2.45,2.31,4,4,0,0,1-3.31-.29q-11.82-5.62-25.21-11.09a3.89,3.89,0,0,1-2.3-2.31A3.66,3.66,0,0,1,2186.92,844Zm-71.29-23.47a3.92,3.92,0,0,1-2,2.59,4.46,4.46,0,0,1-3.31.43q-13.11-3.6-26.94-7.06a4,4,0,0,1-2.59-1.87,4.13,4.13,0,0,1-.58-3.31,3.91,3.91,0,0,1,2-2.59,3.69,3.69,0,0,1,3.17-.58q14.12,3.47,27.22,7.06a3.93,3.93,0,0,1,2.59,2A4.43,4.43,0,0,1,2115.63,820.53Zm51.13,19.15a4,4,0,0,1-3.31.29q-12.54-4.47-26.21-8.64a4.48,4.48,0,0,1-2.59-2.16,3.68,3.68,0,0,1-.29-3.17,3.93,3.93,0,0,1,2-2.59,4,4,0,0,1,3.32-.29q13.82,4,26.64,8.64a3.91,3.91,0,0,1,2.45,2.16,4,4,0,0,1,.28,3.31A4.37,4.37,0,0,1,2166.76,839.68Zm-390-77a4,4,0,0,1,2.88,1.59,4.29,4.29,0,0,1,1,3.16,3.94,3.94,0,0,1-1.58,2.88,4.33,4.33,0,0,1-3.17,1q-14-1.29-28.23-2.45a4.2,4.2,0,0,1-4-4.6,4.44,4.44,0,0,1,4.75-4Q1762.8,761.34,1776.76,762.63Zm59,13.11a4.3,4.3,0,0,1-3.17,1q-14-1.43-28.37-2.88a4,4,0,0,1-2.88-1.58,4.41,4.41,0,0,1-1-3.17,4,4,0,0,1,1.59-2.88,4.36,4.36,0,0,1,3.17-1q14.4,1.44,28.37,2.88a4,4,0,0,1,2.88,1.59,4.36,4.36,0,0,1,1,3.17A4,4,0,0,1,1835.8,775.74Zm54.44-1.3a4.51,4.51,0,0,1,2.88,1.73,4.41,4.41,0,0,1,.87,3.17,4.78,4.78,0,0,1-1.59,2.88,4.66,4.66,0,0,1-3.16.86q-14-1.73-28.23-3.31a4.45,4.45,0,0,1-3.89-4.75,4.74,4.74,0,0,1,4.9-3.89Q1876.42,772.72,1890.24,774.44Zm58.19,15.27a4.68,4.68,0,0,1-3.17.86q-13.83-2-28.08-3.89a4.26,4.26,0,0,1-3.6-4.89,3.53,3.53,0,0,1,1.58-2.74,3.83,3.83,0,0,1,3.17-.86q14.25,1.72,28.22,3.88a3.57,3.57,0,0,1,2.74,1.59,4.92,4.92,0,0,1,.86,3.31A4,4,0,0,1,1948.43,789.71Zm24.62,5.18a4,4,0,0,1-2.73-1.73,3.81,3.81,0,0,1-.72-3.31,4.24,4.24,0,0,1,4.89-3.46q14.27,2.31,28.09,4.76a4,4,0,0,1,2.73,1.72,4.36,4.36,0,0,1,.72,3.32,4.54,4.54,0,0,1-1.87,2.73,4.07,4.07,0,0,1-3.17.72Q1987.31,797.2,1973.05,794.89Zm296,264.85,1.65-2.16a4,4,0,0,1,2.88-1.58,4.16,4.16,0,0,1,3.17.72,4.56,4.56,0,0,1,1.73,2.88,5.07,5.07,0,0,1-.36,2.38l21.67-8.72,51.13,28.81-263.27,56.31,123.72-91.17,54.29-1.87-130.91,73.59,135.52-53.86ZM1507.87,1080q-2.59-13.41-6-32.62,2.75-10.38,4.75-21.32,3.32-8.2,5.33-13.25,1.59-5.17,4.9-19.44,2.31-15.27,2.31-20.88a168.38,168.38,0,0,0-3.32-20.45,64.47,64.47,0,0,0-7.92-17.86,88.34,88.34,0,0,0-25.35-24.48,131.14,131.14,0,0,0-16.56-8.79q-5.61-2.45-11.23-5-2.31-1-4.32-2,3.73-4.61,7.34-9.5a212.41,212.41,0,0,0,17.86-27.08q6.2-12.24,11.52-25.2,2.31-6.19,4.61-12.24a51.52,51.52,0,0,0,3.31-13.11,17.83,17.83,0,0,0,.29-3l.29-12.25a1,1,0,0,1-.29-.72,123.85,123.85,0,0,0,15.55-9.21q8.22-6.19,9.22-14.12v-.72q-5.73-7.95-11.95-15,67.6-23.08,152.52-39,2.88-.43,6.19-1-.58,3.17-1.15,6.19-3.21,18.42-6.7,36.08l3.82.21a4.72,4.72,0,0,1,3,1.45,4.09,4.09,0,0,1,1,3.16,4.78,4.78,0,0,1-1.44,3,4.41,4.41,0,0,1-3.17,1c-1.66-.11-3.32-.2-5-.29q-10.76,52-24.27,96.92-1.14,3.6-2.16,7.35-20.29,63.79-46.08,112.48-1.3,2.73-2.88,5.33c-.46.81-.92,1.62-1.37,2.44-1.16,2-2.28,4.06-3.39,6Q1546.45,1046.26,1507.87,1080Zm-781.59-51.06q-4.75,12.11-22,34.14-7.82,11.93-8.57,23-7.3.63-14.47.93-103.63,4.45-177.29-65.46-33.75-32-61.21-79.57-2.29-4.17-4.75-8.49-1.57-2.6-2.88-5.33Q409.29,879.44,389,815.63q-1-3.74-2.16-7.34-19.17-63.66-32.7-141.58c-.38-2-.77-4.08-1.15-6.19q3.31.57,6.19,1,107.88,20.16,187.8,52c.29.19.63.38,1,.58h.15q4.17,1.73,8.49,3.45c.77.39,1.59.82,2.45,1.3a1.68,1.68,0,0,1,.72.14,534.7,534.7,0,0,1,69.92,35.58q20.94,84.72,90.74,126.52,2.64,6,5.54,11.73,17.34,34.81,41.84,57c0,.24,0,.48.07.73q-3.35,1-6.91,2.3-25.07,2-32.84,28.52Q722.39,1000.56,726.28,1028.92Zm156.55-510.4q12.43,14,25.2,27.79,17,18.47,34.2,36.59,33.88,35.76,68.49,70.28,6.62-5.34,18.57-19.16a57,57,0,0,1,7.49.15q18.27,1.41,39.47,13.68,27.93,18.72,42,25.78a299.78,299.78,0,0,0-12.39-28.09q11.38-.28,19.16,6.05a24.51,24.51,0,0,1,8.71,14.12c.27,1.25.49,2.54.65,3.88l.72,3.32q.8,2.61,1.94,5.61c.78,1.94,1.67,4,2.67,6.2a10.55,10.55,0,0,1,.29,1.29.46.46,0,0,1,.14.29c.19,0,.24.05.14.14l2.45,5.48c.39.86.72,1.68,1,2.45a21.74,21.74,0,0,1,1.59,3.31,14.44,14.44,0,0,0-1.59-2.31,55,55,0,0,0-7.63-8.93l-.94-.86a43,43,0,0,0-4.1-3.17,32.48,32.48,0,0,0-7.49-3.89,24.07,24.07,0,0,0-6.77-1.58,24.61,24.61,0,0,0-17.72,5.33,45.19,45.19,0,0,0-10.65,12.53q-11.67-8.07-34.57-27.65a71.11,71.11,0,0,0-11.81-6.84,113.18,113.18,0,0,0-19.44-6.85l-11.95-.28Q1022,668,1021.37,682.41a33.11,33.11,0,0,1-.72,6.77q-5.76,28.08-22,42.63-2.73-14.55-10.23-35.28-14.68-41.06-28.66-55.31-9-9.3-28.37-31.25a4,4,0,0,1-.29-.29q-19.44-22.32-30-33-5.76-5.91-15.84-17-5-5.31-9.37-9.65-3.42-3.48-6.48-6.34-.28-.29-16.85-19.73a44.25,44.25,0,0,0-3.88-4.18A67.31,67.31,0,0,0,871.88,506Q877.34,512.28,882.83,518.52Zm258.51,154.53-2.81-.07,7-26.14q13.68-21.89,24.34-41.48a658.06,658.06,0,0,0,33.7-70q23.19,7.05,25.78,8.35a31.7,31.7,0,0,1,4.75,2.45q-3.73,8.79-9.36,20.88-10.8,23.19-27.65,59.19-12.82,27.66-34.28,60.64c-.19.33-.72,1.26-1.58,2.8q-8.16-11.8-18.15-16Zm227.84,541.08c-1.06.58-2.16,1.15-3.31,1.73a40.44,40.44,0,0,0-16.28,16.85q-8.64-3.45-34.13-14.69a349.07,349.07,0,0,1-32.69-16.78q-5.62-3.32-11-6.84-2.14-1.34-4.25-2.74-1-.69-2-1.44a45.46,45.46,0,0,1-7.92-7.48,47.91,47.91,0,0,1-8.93-16.93,74.09,74.09,0,0,1-2.74-22.82c0-1.32,0-2.62.07-3.89q.19-21.46.8-30.75a54.46,54.46,0,0,1,.57-5.69c.19-1.15.38-2.3.58-3.46q.58-7,1.51-16.77c.11-1.39.22-2.8.36-4.25q1.29-25.92,6.19-58.62a166.93,166.93,0,0,0-1.73-61.93q-2-25.92,12-27.36a72.79,72.79,0,0,1,16.7,9.07q25.5,18.58,31.83,43.79a82,82,0,0,1,1,22.46q-1.73,2.88-3.17,5.91-14.25,29.52-17.86,76.76-1,14.84-2,43.93a348,348,0,0,1-4.61,42.34v.28q1.88.72,4.18,1.88a81.43,81.43,0,0,1,12.67,4.89q15,6.2,32.83,15.41Q1366.45,1210.67,1369.18,1214.13ZM1416.42,937q-4.76,11.37-9.51,22.32Q1373.22,927,1361.69,916q-11.24-11.52-24-22.47a56.53,56.53,0,0,1-16.85-26.06q-3.32,2.29-7.35,5.18a29.22,29.22,0,0,0-3.6,2q-2.7,1.92-5.76,4.18c.61-.77,1.24-1.54,1.88-2.31q4.45-5.32,9.21-10.37L1315,866a39,39,0,0,1,3.31-3.46q3.27-3.44,6.7-6.84a56.83,56.83,0,0,1,2.66-5.55q4.38-7.58,11.81-7.77,2-1.7,4-3.39c-.2,1.19-.42,2.42-.64,3.68q-2.89,8.2.43,13.53,2.29,5.19,9.21,10.8,6.91,6.35,28.66,23.91,17.14,13.11,30.1,16.85l6.63,1.88q6.48,5.61,3.31,16.84l-2.45,5.05C1418,933.39,1417.19,935.21,1416.42,937ZM801.17,1008.9q-7.92-12.09-12.1-17.85c-.67-.87-1.3-1.73-1.87-2.6Q781,980.53,777,977.65a21,21,0,0,1,5-3.6q10.85-5.41,29.1-17l5.32-3.46q23.19-15.12,35.87-21.17a10,10,0,0,0,6.62-7.06,46.94,46.94,0,0,0,1.15-10.22q11.23,3.6,21.61,18l.36.5q10.68,15.14-.65,19.81-15.06,2.55-30.61,12.81A134.87,134.87,0,0,0,838,975.92q-4.75,4-18.29,16.71Q808.37,1003.3,801.17,1008.9Zm134.22,156.7c-.15,2.57-.29,5.18-.43,7.85q-1.19,24.29-2,54.22a45,45,0,0,0-21.17-20.59,57.3,57.3,0,0,0-7.64-3.17q-.07-5.16.36-23.12.33-13.21.94-33.34,1.21-44.7,5.9-77.55c.18-1.39.37-2.76.58-4.11q3.2-21.16,1.3-35.71a51,51,0,0,0-4.32-15.56q-8.35-17.14-20.6-24.77c-.77-.48-1.54-.91-2.3-1.3,1-1,2.16-1.92,3.31-2.88q12.53-10.08,26.07-11.52l1,.29a45.21,45.21,0,0,1,10.16,4.25,40.19,40.19,0,0,1,11,9.43,46.57,46.57,0,0,1,5.12,7.85,60.74,60.74,0,0,1,4.1,10.15q6.78,21.6.87,47.39-4.42,24.48-7.42,52.35a1.91,1.91,0,0,0-.07.36q-1.85,16.47-3.17,34.13c-.38,5.18-.74,10.62-1.08,16.35C935.72,1159.53,935.56,1162.53,935.39,1165.6Zm516-215.89q-1,3.31-3.89-2a51.73,51.73,0,0,1-4.32-10.22,46.54,46.54,0,0,1-3.6-9.94l-.29-.28-1-2.6a10.45,10.45,0,0,0-.58-1.44,1.2,1.2,0,0,0-.14-.57V910.4q3.32-3.61,5.91-6.34c.47-.58,1-1.2,1.44-1.87a13,13,0,0,1,.86-1,4.82,4.82,0,0,1,.72-1.3l1.58-1.73c0-.19.15-.29.44-.29l.28-.28q1.59,5.17,2,14.83c.1,2.31.19,5,.29,8.21q.28,7.77.72,18.87c.19,4.6,0,7.82-.43,9.64Zm271-184.05a4.36,4.36,0,0,1-3.17,1l-28.51-2a4.21,4.21,0,0,1-2.88-1.44,4.11,4.11,0,0,1-1.16-3.17,4,4,0,0,1,1.59-2.88,3.67,3.67,0,0,1,3-1.15l28.52,2a4.5,4.5,0,0,1,3,1.59,3.86,3.86,0,0,1,1,3A4.8,4.8,0,0,1,1722.46,765.66ZM118.23,824.41a4.15,4.15,0,0,1,3,1.3A262.4,262.4,0,0,0,143,844.15a4.76,4.76,0,0,1,1.58,2.88,5.22,5.22,0,0,1-.86,3.31,4.81,4.81,0,0,1-2.88,1.58,4.68,4.68,0,0,1-3.17-.86,248.32,248.32,0,0,1-22.47-19.15,4.18,4.18,0,0,1-1.29-3,4.31,4.31,0,0,1,1.29-3.17A3.88,3.88,0,0,1,118.23,824.41ZM83.81,776.6a4,4,0,0,1,3.31.29,3.91,3.91,0,0,1,2.16,2.45,85.27,85.27,0,0,0,13,24.91,4.16,4.16,0,0,1,.72,3.17,4.25,4.25,0,0,1-5,3.6,4,4,0,0,1-2.73-1.73,97.94,97.94,0,0,1-14.12-27.36,4,4,0,0,1,.29-3.31A3.49,3.49,0,0,1,83.81,776.6Zm14.83-51.27a4.16,4.16,0,0,1-.72,3.17,62.22,62.22,0,0,0-10.51,24.19,4.58,4.58,0,0,1-1.87,2.74,4.16,4.16,0,0,1-3.17.72,4.11,4.11,0,0,1-2.74-1.87,3.48,3.48,0,0,1-.72-3.17q2.45-14,12-27.51a3.65,3.65,0,0,1,2.73-1.73,3.5,3.5,0,0,1,3.17.72A4.11,4.11,0,0,1,98.64,725.33ZM288,623.22a4.46,4.46,0,0,1,3.31.43,4.64,4.64,0,0,1,2,2.59,4.48,4.48,0,0,1-.44,3.32,4.55,4.55,0,0,1-2.59,2q-13.68,3.9-26.64,7.92a4.89,4.89,0,0,1-3.31-.28,3.93,3.93,0,0,1-2-2.6,4,4,0,0,1,.29-3.31,3.45,3.45,0,0,1,2.45-2Q274.06,627.11,288,623.22Zm57.75-13.54a4,4,0,0,1,1.87,2.59,4.43,4.43,0,0,1-.43,3.32,4.61,4.61,0,0,1-2.74,1.87q-14,3.31-27.07,6.77a4.45,4.45,0,0,1-3.31-.43,3.93,3.93,0,0,1-2-2.6,4.46,4.46,0,0,1,.43-3.31,4,4,0,0,1,2.74-2q13.25-3.45,27.22-6.76A4.09,4.09,0,0,1,345.78,609.68Zm-212.57,76a4,4,0,0,1,3.31-.57,3.91,3.91,0,0,1,2.74,1.87,4.87,4.87,0,0,1,.57,3.31,4.43,4.43,0,0,1-2,2.74,168.9,168.9,0,0,0-21.75,16,4.36,4.36,0,0,1-3.17,1,4.15,4.15,0,0,1-2.88-1.44,4.07,4.07,0,0,1-1.15-3.16,4,4,0,0,1,1.58-2.89A179.81,179.81,0,0,1,133.21,685.72Zm73-34.27a4.48,4.48,0,0,1,2.45-2.31q12.39-4.74,26.07-9.36a4.07,4.07,0,0,1,3.17.15,5.08,5.08,0,0,1,2.3,2.59,3.71,3.71,0,0,1-.28,3.17,5.24,5.24,0,0,1-2.45,2.3q-13.54,4.47-25.78,9.22a4,4,0,0,1-3.32,0,5.2,5.2,0,0,1-2.3-2.45A3.67,3.67,0,0,1,206.22,651.45Zm-17.57,13.82a5.11,5.11,0,0,1-2.3,2.45q-13.24,5.76-24.77,11.81a4.89,4.89,0,0,1-3.31.29,3.88,3.88,0,0,1-2.45-2.16,4,4,0,0,1-.29-3.31,3.47,3.47,0,0,1,2-2.45q11.8-6.2,25.34-12.1a3.69,3.69,0,0,1,3.32-.14,4.41,4.41,0,0,1,2.44,2.3A4,4,0,0,1,188.65,665.27ZM160.28,870.64l162.6,64.67L165.76,847l65.09,2.3L379.48,958.64,63.5,891l61.35-34.56Zm237.2-273.92a3.68,3.68,0,0,1,3.17.58,4.42,4.42,0,0,1,2,2.73,4.16,4.16,0,0,1-.72,3.17,4.46,4.46,0,0,1-2.59,2q-14.13,3-27.51,6a4.83,4.83,0,0,1-3.32-.58,3.9,3.9,0,0,1-1.87-2.74,4,4,0,0,1,.58-3.31,3.56,3.56,0,0,1,2.73-1.87Q383.23,599.61,397.48,596.72ZM425.13,591q13.69-2.88,27.94-5.47a3.71,3.71,0,0,1,3.17.57,4.63,4.63,0,0,1,1.87,2.88,4.07,4.07,0,0,1-.72,3.17,4.54,4.54,0,0,1-2.73,1.87q-14.12,2.74-27.8,5.48a4.16,4.16,0,0,1-3.17-.72,3.92,3.92,0,0,1-1.87-2.74,3.72,3.72,0,0,1,.58-3.17A3.9,3.9,0,0,1,425.13,591Zm108-15.27a4.24,4.24,0,0,1,3.46-4.89q13.82-2.46,28.22-4.47a4.16,4.16,0,0,1,3.17.72,4.1,4.1,0,0,1,1.73,2.88,4.62,4.62,0,0,1-.87,3.17,4,4,0,0,1-2.73,1.73q-14.26,2-28.08,4.46a4.07,4.07,0,0,1-3.17-.72A3.82,3.82,0,0,1,533.15,575.69Zm-50.7,13.11a4.42,4.42,0,0,1-3.31-.72,4,4,0,0,1-1.73-2.74,3.73,3.73,0,0,1,.72-3.31,3.65,3.65,0,0,1,2.74-1.73q13.68-2.44,27.79-4.89a3.47,3.47,0,0,1,3.17.72,4.6,4.6,0,0,1,1.88,2.73A4.16,4.16,0,0,1,513,582a5.2,5.2,0,0,1-2.88,1.87Q496,586.36,482.45,588.8ZM621,558a4.16,4.16,0,0,1,3.17.72,4.6,4.6,0,0,1,1.73,2.88,4.75,4.75,0,0,1-.87,3.17,4.57,4.57,0,0,1-2.88,1.73q-14.25,2-27.94,4a5,5,0,0,1-3.31-.86,3.56,3.56,0,0,1-1.58-2.74,4.32,4.32,0,0,1,.72-3.31,3.68,3.68,0,0,1,2.88-1.59Q606.74,560,621,558Zm-159.86,635.7q-3.88-9.93.86-17.71,4.9-7.63,15.56-8.65,10.51-.85,20.59,5.48,10.23,6.48,14.12,16.42,3.74,9.93-1,17.57-4.9,7.62-15.41,8.49-10.67,1-20.74-5.32Q464.88,1203.62,461.14,1193.68Z" style="fill:#f0f0ff;fill-rule:evenodd"/><path d="M2269.09,1059.74l1.22,5.33-135.52,53.86,130.91-73.59ZM1107.21,694.08l-3.31,5.47q-2,3.32-3.75,5.91l-11.66-10.66a45.19,45.19,0,0,1,10.65-12.53Zm29-7.64-2.31,10.66-.43-.36q-2.62-2.22-6.48-5.69a35.41,35.41,0,0,0-3.31-1.58v-11a32.48,32.48,0,0,1,7.49,3.89,43,43,0,0,1,4.1,3.17ZM165.76,847l157.12,88.28-162.6-64.67Zm586.15,156-.43-9.51a100.18,100.18,0,0,0,11.38-8.92c1.15-1,2.26-1.88,3.31-2.74v11.38Q760.13,997.38,751.91,1003Zm35.29-14.55c.57.87,1.2,1.73,1.87,2.6q4.18,5.76,12.1,17.85l-8.07,6.63q-2.88-4.17-6.48-10.66L782,996.09l.72-1Q784.89,991.77,787.2,988.45Zm831.57,274.65q-20.88-6.48-43.07-15.56l-2.08-.86q-20.56-8.73-32.62-16.27-12.68-7.92-27.8-15.7-15-7.92-21.89-16.13-6.76-8.36-10.66-13.11-.86-11-.86-22.32a292.07,292.07,0,0,1,7.2-66.76c.72-3.13,1.48-6.28,2.3-9.43.67,3.07,1.06,5,1.16,5.76,0,.36.09.72.14,1.08q1.13,9.32,3.17,26.29a120.27,120.27,0,0,0,7,26.64q5.19,12.39,23.77,26.93,16,12.67,40.18,25.64,1.15.72,43.35,22,7.79,4.18,14.11,7.78l-.57.86-.58,1a22.32,22.32,0,0,0-1.87,3.1,5,5,0,0,0-.29.5,1.15,1.15,0,0,1-.14.43,39.3,39.3,0,0,0-2.59,18.73A38.2,38.2,0,0,0,1618.77,1263.1Z" style="fill:#abb1eb;fill-rule:evenodd"/><path d="M1656.57,1219a62.14,62.14,0,0,0-6.12-1.52,36.13,36.13,0,0,0-7.78,0q-12.81-9.93-35.86-23.62-53.57-32-71.29-44.93-13.24-9.65-22.9-46.8-1.86-7.65-4.75-22.11,38.58-33.72,69.27-86.92c1.11-2,2.23-4,3.39-6q44.38,1.18,95.56,13.25a1,1,0,0,1,.72,0l2.44.58q4.18,1.15,8.21,2l.15.14a5,5,0,0,1,1.15.14q77.19,19.74,169.37,63.23,2.3,1,5,2.45c-1.35,1.34-2.69,2.64-4,3.88q-52.71,49.54-101.67,85.26l-5.76,4Q1702.16,1197.42,1656.57,1219ZM359.46,1093.87l-5.18-1q-5.62-1-2.6,4.89l66.18,130.77q-25.68-15.1-52.49-34.27l-5.77-4q-49-35.71-101.67-85.25-2-1.87-4-3.89,2.73-1.44,5-2.45,92.16-43.5,169.36-63.23a5.09,5.09,0,0,1,1.15-.14l.15-.14c2.69-.58,5.42-1.25,8.21-2,.77-.19,1.58-.39,2.45-.58a1,1,0,0,1,.72,0,522.1,522.1,0,0,1,62.93-11q73.66,69.91,177.29,65.46,7.15-.3,14.47-.93c0,.35,0,.71-.07,1.08a31.89,31.89,0,0,0,2.16,13.68,23.6,23.6,0,0,0,2.88,6.34,27.4,27.4,0,0,0,4,5q.72.57,7.77,6.62c.77.58,1.59,1.25,2.45,2a28.92,28.92,0,0,1,8.79,11.09,51.5,51.5,0,0,1,3.16,14.25l-4.75,28.66q-2.73,8.07-6.48,10.52c-2.5,1.54-3.79,2.49-3.89,2.88q-35.85,16.41-49.25,22.9a310.9,310.9,0,0,1-36.29,15.26,56.38,56.38,0,0,0-16.28-7.34l-40-79.36c-.15-.24-.29-.48-.43-.72l-2.74-5.32q-3-5.78-8.64-6.92l-196.29-38.16q-5.62-1-2.6,4.75ZM837.82,670q-11.62,15.84-16.2,25.71-8.93,19.35-9.51,44.43c-3.14-.63-6.36-1.14-9.65-1.51Q771.79,735,748,747.36a87.63,87.63,0,0,0-11.09,6.92Q722.68,767,711.73,788.12a108.33,108.33,0,0,0-10.22,31.4q-2.31,14.55,1.29,34a51,51,0,0,0,2.6,7.34,27.47,27.47,0,0,0,1.87,3.6l7.2,6a.46.46,0,0,1,.29.14h.43a2.6,2.6,0,0,0,.86.15q2.12,5.26,4.4,10.3-69.8-41.8-90.74-126.52a310.5,310.5,0,0,1-8.13-54.16c-.1-2.49-.24-5-.44-7.48-.09-1.64-.19-3.27-.28-4.9q-1.3-44.07,6.77-96.64c.28-2,.62-4.13,1-6.33q8.64-51.85,26.21-112c.49-1.63,1-3.22,1.44-4.75q1.88,1.44,4,3.16Q730,525.57,775.53,577.71c.2.38.39.72.58,1l4.75,5.62c.48.48,1,1,1.44,1.58.29.19.43.34.43.43Q818.45,629,837.82,670Zm160.8,61.86q-14.26,12.39-36.44,14.4c-.57-1.34-1.1-2.69-1.58-4a487,487,0,0,0-51.85-99.8Q895.63,623,880.52,604.64q-3.87-4.75-7.7-9.58-26.27-32.89-50.77-68.33a34.31,34.31,0,0,0-2.73-4.18,59.06,59.06,0,0,0,24.62-1.44c1.16-.29,2.26-.58,3.32-.86a5.1,5.1,0,0,0,1.44-.44,44.25,44.25,0,0,1,3.88,4.18q16.56,19.44,16.85,19.73,3.06,2.87,6.48,6.34,4.38,4.34,9.37,9.65,10.08,11.09,15.84,17,10.51,10.66,30,33a4,4,0,0,0,.29.29q19.36,22,28.37,31.25,14,14.26,28.66,55.31Q995.89,717.26,998.62,731.81Zm146.9-85-7,26.14-3.38-.07-.72-3.32c-.16-1.34-.38-2.63-.65-3.88Zm202.2,89.72c-.74,1.32-1.46,2.66-2.16,4a86.91,86.91,0,0,0-8.93,38.31q-.29,21.17,10.8,36-.86,5.33-1.87,12-.81,5-2.09,12.17-2,1.69-4,3.39-7.42.2-11.81,7.77a56.83,56.83,0,0,0-2.66,5.55q-3.42,3.4-6.7,6.84A39,39,0,0,0,1315,866l.14.14q-4.76,5-9.21,10.37c-.64.77-1.27,1.54-1.88,2.31q-5.46,4-12.09,9.07-18.73,14.84-27.94,20.45A97.22,97.22,0,0,0,1237,924.65c-.29,0-.43.1-.43.29q-13.11,12-18.15,26.07c-.15.93-.29,1.87-.43,2.81.46-1.19.94-2.37,1.44-3.53q20.16-29.1,46.81-20-14,1.44-12,27.36a166.93,166.93,0,0,1,1.73,61.93q-4.89,32.7-6.19,58.62c-.14,1.45-.25,2.86-.36,4.25q-.92,9.75-1.51,16.77c-.2,1.16-.39,2.31-.58,3.46a54.46,54.46,0,0,0-.57,5.69q-.6,9.29-.8,30.75c0,1.27-.06,2.57-.07,3.89a74.09,74.09,0,0,0,2.74,22.82,47.91,47.91,0,0,0,8.93,16.93,45.46,45.46,0,0,0,7.92,7.48q1,.75,2,1.44,2.1,1.41,4.25,2.74,5.38,3.52,11,6.84a349.07,349.07,0,0,0,32.69,16.78q25.5,11.24,34.13,14.69a46.6,46.6,0,0,0-3.45,32.55c.48,2,1,4,1.51,5.9.39,1.55.8,3.09,1.22,4.61q-4.87-1.45-9.64-3-16.12-4.9-31.11-10-13.3-4.07-34.06-12.74l-1.23-.51q-3.11-.49-6.12-1.08-23.1-4.79-38.67-16.78-13.62-10.53-18.58-24.77a50.67,50.67,0,0,1-2.37-10.8,54.8,54.8,0,0,1-.36-5.47q-.07-13.17-.15-24.56,0-5.62,0-10.8v-10.37q0-17.51.15-29.31,0-34,1.36-61.2.32-6.51.72-12.61c.07-1.18.14-2.36.22-3.53q1.31-19.51,1.73-32.76-16.68,7.51-32.84,16.34l-14.9-1.72q-5-22.59-11.16-34.28-10.09-30.68,4-75.9,8.35-24.48,11.95-36.87a242.68,242.68,0,0,0,7.35-30.67q.29-3,.57-5.62a8.68,8.68,0,0,0,.15-1.44c.09-.19.19-.29.28-.29q22.77-16,22.47-38.88a48.26,48.26,0,0,0-2.45-14.84A74.6,74.6,0,0,0,1186.13,760a33.14,33.14,0,0,1-5.33-25.49q-4.46-12.1-7.2-18.87a189.7,189.7,0,0,0-8.64-20c-.77-1.34-1.53-2.64-2.3-3.89l-.58-.86c-.28-.42-.57-.83-.86-1.23.86-1.54,1.39-2.47,1.58-2.8q21.46-33,34.28-60.64,16.85-36,27.65-59.19,5.61-12.09,9.36-20.88,10.52,5.61,15.12,14.83-12.81,24.5-28.08,62.08-8.93,21-25.92,63.36a8.9,8.9,0,0,1,.57-1q45.79-58.62,115.65-119.54l4-3.46q.72,2.59,1.3,5.33,17.43,67.11,25.78,125.16.72,3.74,1.15,7.05Q1346.18,718.75,1347.72,736.56ZM1110,698l1.72,18-11.52-10.51q1.72-2.6,3.75-5.91l3.31-5.47Zm23.9-.87-2.3,11.09-7.92-14.26v-4.46a35.41,35.41,0,0,1,3.31,1.58q3.86,3.47,6.48,5.69ZM782,974.05a21,21,0,0,0-5,3.6,14.65,14.65,0,0,0-7.2,1.73,21.27,21.27,0,0,0-3.6,2.45c-1,.86-2.16,1.77-3.31,2.74a100.18,100.18,0,0,1-11.38,8.92,194.38,194.38,0,0,1,7.78-21.89q2.5-6,8.78-20.09c.13-.36.28-.72.44-1.08l6.91,6.48Q779.14,970.16,782,974.05Zm104,14.4c.76.39,1.53.82,2.3,1.3q12.24,7.63,20.6,24.77a51,51,0,0,1,4.32,15.56q1.9,14.54-1.3,35.71c-.21,1.35-.4,2.72-.58,4.11q-4.68,32.85-5.9,77.55-.62,20.11-.94,33.34-.43,18-.36,23.12a67.4,67.4,0,0,0-21.46-3.31q-.33-6-.5-12-.21-7.08-.22-14.19-.29-14.84,2.6-58.33,2.3-36.57.28-57.89-12.24-7.35-16.27-19c-.38-1.15-.72-2.35-1-3.6q-2.59-12.68,3.75-26.79c.19-.48.38-.91.57-1.3q.72-1.44,1.44-2.73a20.31,20.31,0,0,1,1.3-2.45l1.15-1.73A64.61,64.61,0,0,1,886,988.45Zm687.62,258.23a252.93,252.93,0,0,1-59.77,4.75c.59-.5,1.14-1,1.66-1.44q4.74-4.89,1.15-10.94l-4.32-9.08q-3-5.33-4.61-6.48t-6.77-3.6q-5.19-2.16-7.2-2.88a3.25,3.25,0,0,0-3.89.29,5.46,5.46,0,0,0-2.23,3.38l-.44-.07c-.22-.73-.43-1.45-.64-2.16q6.81-4.28,2.3-9.07a28.1,28.1,0,0,0-5.11-1.87c-.78-3.66-1.42-7.31-2-11s-.86-7.34-1.15-11.09q3.88,4.76,10.66,13.11t21.89,16.13q15.12,7.77,27.8,15.7Q1553,1237.94,1573.62,1246.68ZM1450.41,953.46,1448.1,962l-8.49-15.26v-4A139.48,139.48,0,0,0,1450.41,953.46Zm-19.16,22.61-20.16-13.83,1-1.22q4.68-5.67,13-15.77l5.18,5ZM617,1233.07,653.4,1240l9.51,1.8c-.65.48-1.27,1-1.87,1.51l-15.12-2.52h-2.74l-20.31,4Zm53.14,29.81-41.69-7.27-.79-1.58,35,6.19,5.91-.29,1.15-.22v.08A4.57,4.57,0,0,0,670.11,1262.88Zm34.42,11q3.62,1.17,7.78,2.45L653.84,1287l-10.37.57-.29-1.73h-.29l-.86-1.44,4.89.15Zm793.12-36.8c.4,1.25.87,2.71,1.44,4.39q.65,1.73-1.44,3.39Z" style="fill:#dbdfff;fill-rule:evenodd"/><path d="M1592.48,1466.24q3.57,0,15.63-.51a135,135,0,0,1,17,.43l23.62-.72q20.88,2.31,45.23-3.16,19.58-4.18,43.63-14.12a20.91,20.91,0,0,0,8.21-5,18.33,18.33,0,0,1,3.75,10.8q0,26.79-85.84,45.66t-207.39,18.86q-121.55,0-207.38-18.86-11.88-2.61-22.11-5.4L1103.32,1516l-189.38-33.42q-8.79,2.28-18.73,4.47-64.28,14.13-148.62,17.64a13.63,13.63,0,0,0,2.08-2l1.66-2.52a22.9,22.9,0,0,0,2.3-8.36q-.42-16.85.58-23.48,25.41,15.72,56.31,12,26.72-1.15,48.25-18.94a101.16,101.16,0,0,0,17.64-18.86l227.77,40.18h.14l217.83-38.38q2.63,1.5,5.4,2.81-4.6,8.21-3,13.1a10.35,10.35,0,0,0,6.91,6.62q7.92,4.62,19.73,2.16,6.48-.7,19.3-5.76a270.78,270.78,0,0,1,27.51-7.48,4.58,4.58,0,0,0,1.29-.29q18-3.6,53-10.23,12.11-2.29,24.2-4.46t16.13-3.31l2.3-.58q1.59.87,33,11.52,20.59,6.48,34.13,14.4,14.12,7.5,31.11,3.6Zm-938.36-2q6.78,3.46,19.45,14.12,11.8,8.05,22.47,4.46a23.31,23.31,0,0,1,11.8,5.33q2.16,2,9.22,9.65a36.5,36.5,0,0,0,8.86,7.56q-18.58.51-38.09.51-121.56,0-207.39-18.87t-85.84-45.66q0-26.78,85.84-45.65,8.43-1.85,17.21-3.53-6.48,2.47-7.56,3.1-12.24,6.62-13.83,17.71a32.28,32.28,0,0,0,1.3,11,36.1,36.1,0,0,0,9.36,14.83A47.17,47.17,0,0,0,512,1452.2q18.57,3.88,46.8-2.31,39.9-9.21,46.23-9.79,8.07,3,24.63,12.38Q645.19,1461.42,654.12,1464.29Z" style="fill:#e8eaff;fill-rule:evenodd"/><path d="M894.21,1406.4a5.45,5.45,0,0,1,.28-.72,37.51,37.51,0,0,0,2.31-15q.91-5.19,1.44-10.66,3.45-33.4-11.24-75-4-11.38-6.19-18.44c-.48-1.63-.91-3.07-1.3-4.32-.09-.48-.72-2.59-1.87-6.33q-1-3.18-2.45-7.78,31.54-4.32,40.33-8.07c.7-.31,1.37-.62,2-.93l185.78,32.76v190.83h-.14l-227.77-40.18A150.1,150.1,0,0,0,894.21,1406.4Z" style="fill:#60a2f0;fill-rule:evenodd"/><path d="M935,1173.45c1.27-.28,2.54-.54,3.82-.8q12.62,24.67,30.75,39.47,23.33,19.29,52.42,20.73,33.71,3.9,61.21-13.25,1.15,7.22.57,25.64a29.36,29.36,0,0,0,2.6,9.22l4.32,4.89a14.63,14.63,0,0,0,6.48,2.88h.43a2.64,2.64,0,0,0,.86.15q12,3,24.06-10.66,7.62-8.21,10.08-10.51a25.94,25.94,0,0,1,12.82-5.76q11.52,3.88,24.33-4.9,13.83-11.52,21.18-15.27a120.88,120.88,0,0,0,18.57-8.35q5,14.25,18.58,24.77,15.57,12,38.67,16.78l-2.38.5q-69.7,15.42-168.35,15.41-97.71,0-166.85-15.12,5.67-8.6,3.82-21.6Q933.78,1197.73,935,1173.45ZM875.19,1192q3.19-1.7,7-3.38.18,6,.5,12a1.59,1.59,0,0,0,.15.72c0,.09-.24,1.34-.72,3.74a12,12,0,0,1-4.18,6.48l-9.07,4.18a174,174,0,0,1,4.32-17.29Q874.14,1195.21,875.19,1192Zm622.46,45.15v7.78a6.57,6.57,0,0,1-.65.5,179.12,179.12,0,0,1-8.57-21.09,17.53,17.53,0,0,0,5.47,5.11q1.59.57,2.88,5C1497,1235.16,1497.29,1236.05,1497.65,1237.1Zm-221.15,125c.07.31.14.62.22.94q5.47,30.83,14.84,48.53,11.43,22.14,29.59,32.77l-217.83,38.38V1292.19l168.36-29.67q-5.82,29-10.66,48.1-5.89,37.31,14.26,52.43C1275.68,1362.73,1276.09,1362.42,1276.5,1362.11Z" style="fill:#367dd1;fill-rule:evenodd"/><path d="M1271.68,1262.38l-168.36,29.67v-.15l-185.78-32.76a29.92,29.92,0,0,0,11.59-9.87q69.14,15.12,166.85,15.12,98.65,0,168.35-15.41l2.38-.5q3,.58,6.12,1.08l1.23.51Q1272.83,1256.43,1271.68,1262.38Zm216-41.7a2,2,0,0,0-.08.22,5.21,5.21,0,0,0,0,.79l-.36-1.08Z" style="fill:#8ec2ff;fill-rule:evenodd"/><path d="M1110,698l13.68-4,7.92,14.26-4.47,21.75-15.41-14Zm329.66,248.72L1448.1,962l-.07.15-6.41,21-10.37-7.06-1-25.78Z" style="fill:#ed428b;fill-rule:evenodd"/><path d="M1010.72,653.18q-34.61-34.51-68.49-70.28c0-.79.08-1.56.08-2.31q0-27.93-5.48-46.66t-6.19-30.61q-.78-11.88,6.77-25.78t33.34-14.9l.29.07.22.07-.15-.07c.18.06.35.1.51.14q4.44,1.29,8.28,2.74-2.48,3.95-4.76,8.21a26.54,26.54,0,0,0-18.14,7,28.24,28.24,0,0,0-8.93,19A26.63,26.63,0,0,0,955,519.67a30.36,30.36,0,0,0,2.88,2.81c.14-.83.28-1.67.43-2.52a115.86,115.86,0,0,1,12.39-16.13q12.74-13.5,23.33-10.95a2.77,2.77,0,0,0,.58,1.59,14.37,14.37,0,0,1-.58,3.17q-.57,2.58-4.75,10.22c-.37.7-.73,1.38-1.08,2q-3.18,6.27-3.67,8.64-.09.22-3.68,9.86-3.3,8.89-9.57,25.71a127,127,0,0,1-6,11.95,99.45,99.45,0,0,0,8.35,14A211.83,211.83,0,0,0,996.32,607q.85-20.18,5.18-51.56,1.29-9.51,2.3-28.95t2.31-28.8a49.58,49.58,0,0,0,0-14.91q-2.52-14.85-16-23l-4.46-2.88q1.58-2.16,3.17-4.18a65,65,0,0,1,18.86-15.41,24.48,24.48,0,0,1,3.6,2.16q11.38,6.48,20.6,8.35,2.59.58,13.82,1,11.1.15,14,.72,59.34,12.68,82.24,52.14,7.92,28.23-7.49,54.29.13-4.46,0-8.93-.43-5.61-1.15-11.23c.09-.19.09-.34,0-.43v-.58a118.69,118.69,0,0,0-4.32-19.15.49.49,0,0,0-.15-.58,1.33,1.33,0,0,1-.14-.57v-.44c-.39-1.15-.72-2.25-1-3.31q-21.6-43.78-103.41-46.09v14.41q-.42,7.92-1.29,17.28-.66,6-1.73,15.48a.81.81,0,0,0,0,.22q-.83,7.23-1.87,16.41-3.17,33.85,2.45,56l.86,3.17c.29.86.72,2.3,1.3,4.32l-1.3,1.29q-7.35,8.36-3.46,19.59a82,82,0,0,0,6.34,13.68c1.06,2.31,2.3,4.8,3.74,7.49Q1017.35,647.85,1010.72,653.18Zm-48.54,93q4.47,11.67,18.87,52.71,6,17,11.23,30.39,4.9,12.54,10.66,33.41t0,45.23q-3.41,14.25-16.42,34.27-2.7-7.2-6-14.54a262.63,262.63,0,0,0-37.73-59.63q-13-15.82-24.12-27a111.17,111.17,0,0,0-5.69-24q-4.18-11.52-14.55-30-10.8-19.14-14.54-28.8a99.26,99.26,0,0,1-6.63-35.86q0-34.74,31.54-80.07a487,487,0,0,1,51.85,99.8C961.08,743.52,961.61,744.87,962.18,746.21ZM906.74,968.87q-16.43-9.79-25.35-15.41,11.33-4.68.65-19.81a82.21,82.21,0,0,0,23-23,247.69,247.69,0,0,1,11.3,58V969q-4.41.18-9,.22C907.16,969.12,907,969,906.74,968.87Z" style="fill:#452312;fill-rule:evenodd"/><path d="M812.11,740.09q.58-25.08,9.51-44.43,4.57-9.87,16.2-25.71,2.28-3.08,4.83-6.4,15.12-19.74,21.17-33.7a122,122,0,0,0,9-34.79q3.82,4.83,7.7,9.58,15.11,18.32,28.23,37.74-31.54,45.33-31.54,80.07a99.26,99.26,0,0,0,6.63,35.86q3.74,9.65,14.54,28.8,10.36,18.43,14.55,30a111.17,111.17,0,0,1,5.69,24,182.57,182.57,0,0,0-15.49-14.19,81.22,81.22,0,0,0-8.2-6.05,18.84,18.84,0,0,0-4.76-7.63,18,18,0,0,0-11.3-5.4q-2.57-19.69-9.44-33.34a65.7,65.7,0,0,0-4.46-7.63,2.17,2.17,0,0,1-.43-.58,111.86,111.86,0,0,0-15.84-12,113.93,113.93,0,0,0-13.11-6.92A110.88,110.88,0,0,0,812.11,740.09ZM942.23,582.9Q925,564.76,908,546.31q-12.76-13.75-25.2-27.79,7.84-22.63,23.4-34,20.47-14.94,32.76-18.94t18.73-4.39a36.76,36.76,0,0,1,13,1.44q-25.8,1-33.34,14.9t-6.77,25.78q.76,11.88,6.19,30.61t5.48,46.66C942.31,581.34,942.28,582.11,942.23,582.9ZM963.55,501a192.37,192.37,0,0,1,11.59-27.15q2.28-4.26,4.76-8.21,2.75-4.56,5.76-8.71l4.46,2.88q13.47,8.12,16,23a49.58,49.58,0,0,1,0,14.91q-1.3,9.5-2.31,28.8t-2.3,28.95q-4.32,31.4-5.18,51.56A211.83,211.83,0,0,1,973.56,580a99.45,99.45,0,0,1-8.35-14,127,127,0,0,0,6-11.95q6.27-16.82,9.57-25.71,3.6-9.63,3.68-9.86.5-2.37,3.67-8.64c.35-.64.71-1.32,1.08-2q4.17-7.64,4.75-10.22a14.37,14.37,0,0,0,.58-3.17,2.77,2.77,0,0,1-.58-1.59q-10.59-2.55-23.33,10.95A115.86,115.86,0,0,0,958.29,520q.87-4.47,2-8.79Q961.86,505.91,963.55,501Zm178.37.72q-22.9-39.46-82.24-52.14-2.88-.57-14-.72-11.24-.44-13.82-1-9.23-1.86-20.6-8.35a24.48,24.48,0,0,0-3.6-2.16q16-8.79,36.3-8.64,30.09.28,58.18,19.87,27.94,19.74,38.16,48Q1141.2,499.07,1141.92,501.67Zm-236.84,409a82.21,82.21,0,0,1-23,23l-.36-.5q-10.38-14.4-21.61-18-.29-15.27-.86-22.76l1.87-1.87q4.47-4.75,7.92-9.22a64.68,64.68,0,0,0,10.08-17.57l1.8-6.84q9.42,17.52,11.31,21.53A261,261,0,0,1,905.08,910.68Z" style="fill:#7a3a1e;fill-rule:evenodd"/><polygon points="1072.5 165.24 1172.16 80.27 1193.19 117.14 1072.5 165.24" style="fill-rule:evenodd;fill:url(#linear-gradient)"/><polygon points="1213.64 288.23 1188.29 331.29 1069.05 235.52 1213.64 288.23" style="fill-rule:evenodd;fill:url(#linear-gradient-2)"/><polygon points="1271.54 224.29 1082.15 197.21 1271.54 161.78 1271.54 224.29" style="fill-rule:evenodd;fill:url(#linear-gradient-3)"/><path d="M975.14,473.8A192.37,192.37,0,0,0,963.55,501l-14.76-6.05A25.93,25.93,0,0,1,957,480.79,26.54,26.54,0,0,1,975.14,473.8Zm-80.21,347a19.16,19.16,0,0,1,.86,4.76v1a18.3,18.3,0,0,1-2.16,8.79,156,156,0,0,0-13.54-12.75c0-.2,0-.42,0-.64q-.36-7.44-1.22-14.19a18,18,0,0,1,11.3,5.4A18.84,18.84,0,0,1,894.93,820.81ZM769.34,1035l23.76-19.44,8.07-6.63q7.2-5.61,18.58-16.27Q833.28,980,838,975.92a134.87,134.87,0,0,1,12.74-9.65q15.56-10.24,30.61-12.81,8.93,5.61,25.35,15.41l-1,.36a72.51,72.51,0,0,0-6.77,3.09q-20.31,9.79-33,26.07-15,19.3-15,42.2c0,1.25.48,5.61,1.44,13.11s1.44,11.8,1.44,13a43.63,43.63,0,0,1-5.62,21.31q-10.08,18.87-34.56,18.87-11.09,0-18.58-4.32-4.17-2.31-11.38-9.37a46.34,46.34,0,0,0-33.84-13.82,57.59,57.59,0,0,0-24.34,4.9q-2.29,1-4.39,1.8-7.78,3-13.33,3a38.49,38.49,0,0,1-12.24-1.87c0-.37,0-.73.07-1.08q.75-11,8.57-23,17.28-22.05,22-34.14,7.63-25.2,13.82-39.6,9.07-21.47,20.89-36.44,3.57-1.32,6.91-2.3l.58-.15c-.16.36-.31.72-.44,1.08q-6.28,14.12-8.78,20.09a194.38,194.38,0,0,0-7.78,21.89l.43,9.51,1,25.2.72,19.73Zm-48.82,197.74a77.49,77.49,0,0,0,4.61-7.56q1.57-2.93,2.88-6a76,76,0,0,0,4-12.67,65.34,65.34,0,0,0-.58-32.26q-1.44-8.35-4.61-28.09a51.5,51.5,0,0,0-3.16-14.25q12-5.07,29.38-6c2.56-.14,5.2-.22,7.92-.22q38,0,60.49,32.26a100.7,100.7,0,0,1,12.09,23.77q3.46,9.64,3.46,13.82a23,23,0,0,1-.43,4.47Q834,1214.68,813.7,1227a97.8,97.8,0,0,1-22.18,9.94,106.31,106.31,0,0,1-31.11,4.46Q743,1241.35,720.52,1232.71Z" style="fill:#ff65a7;fill-rule:evenodd"/><path d="M536.89,1402.8a20.07,20.07,0,0,0-5.47,6q-16.12,7.62-22.18,8.49a318.36,318.36,0,0,0-31.68,6.63,32.28,32.28,0,0,1-1.3-11q1.59-11.08,13.83-17.71,1.08-.63,7.56-3.1,5.49-2.1,14.9-5.54l3.53,2.3Q527.3,1396.32,536.89,1402.8Zm520.85-365.31c-1.93-.34-3.82-.7-5.69-1.08q-12.67-2.73-35-9.93-7.75-2.51-18.14-6.2-.12-9.35-1.44-27.58,5.65,2.26,10.37,4.25,7.49,2.88,16.7,6.63,4.18,1.9,8.57,3.67a213.08,213.08,0,0,0,50.48,12.6q6,.72,12.24,1.29h6.05a91.25,91.25,0,0,0,50.84-16.27c.06-.52.1-1,.14-1.58a62.93,62.93,0,0,0,0-7.78c-.57-4.13-.91-7.34-1-9.65q6.2,11.7,11.16,34.28l-2.52-.29q-44.65-5.91-93.76,14a22.77,22.77,0,0,0-2.74,1l-4,1.73Zm65.89-343.56L1110,698l-2.74-3.89-8.07-11.81a24.61,24.61,0,0,1,17.72-5.33,24.07,24.07,0,0,1,6.77,1.58v15.41Zm-174.84-199L963.55,501q-1.69,5-3.24,10.22-1.15,4.32-2,8.79c-.15.85-.29,1.69-.43,2.52a30.36,30.36,0,0,1-2.88-2.81,26.63,26.63,0,0,1-6.91-19.87A25.92,25.92,0,0,1,948.79,494.9Zm-68,348.38q-.4-13.08-.72-20.67a156,156,0,0,1,13.54,12.75,7.25,7.25,0,0,1-.72,1.15,21.54,21.54,0,0,1-2.74,3.32,18.33,18.33,0,0,1-7,4.6A15,15,0,0,1,881,845v-1.73Zm1.15,331.1q-3.8,8.76-6.77,17.57-1.05,3.25-2,6.48a174,174,0,0,0-4.32,17.29q-14,4.46-39.46,14.25t-35.72,12.82q-42.15,13-71.51-4.61l-3.81-2.45a33,33,0,0,0,2.16-3q22.47,8.64,39.89,8.64a106.31,106.31,0,0,0,31.11-4.46A97.8,97.8,0,0,0,813.7,1227Q834,1214.68,836.6,1200a23,23,0,0,0,.43-4.47q0-4.17-3.46-13.82A100.7,100.7,0,0,0,821.48,1158Q799,1125.71,761,1125.7c-2.72,0-5.36.08-7.92.22q-17.36.9-29.38,6a28.92,28.92,0,0,0-8.79-11.09c-.86-.77-1.68-1.44-2.45-2q-7.05-6-7.77-6.62a27.4,27.4,0,0,1-4-5,23.6,23.6,0,0,1-2.88-6.34,31.89,31.89,0,0,1-2.16-13.68,38.49,38.49,0,0,0,12.24,1.87q5.55,0,13.33-3,2.1-.78,4.39-1.8a57.59,57.59,0,0,1,24.34-4.9,46.34,46.34,0,0,1,33.84,13.82q7.2,7.06,11.38,9.37,7.49,4.32,18.58,4.32,24.48,0,34.56-18.87a43.63,43.63,0,0,0,5.62-21.31q0-1.74-1.44-13c-1-7.5-1.44-11.86-1.44-13.11q0-22.9,15-42.2,12.67-16.27,33-26.07a72.51,72.51,0,0,1,6.77-3.09l1-.36c.21.13.42.25.64.36q3.75,2.29,8,4.82-13.54,1.44-26.07,11.52c-1.15,1-2.26,1.92-3.31,2.88a64.61,64.61,0,0,0-10.23,12.1l-1.15,1.73a20.31,20.31,0,0,0-1.3,2.45q-.72,1.29-1.44,2.73c-.19.39-.38.82-.57,1.3q-6.34,14.12-3.75,26.79c.29,1.25.63,2.45,1,3.6q4,11.65,16.27,19,2,21.31-.28,57.89Q881.68,1159.55,882,1174.38Zm539.21-247.86,16.56-3.31a10.45,10.45,0,0,1,.58,1.44l1,2.6.29.28v19.16l-9.37,3.6-5.18-5-8.64-8.21c.77-1.83,1.53-3.65,2.3-5.47ZM684.37,1460.4c0-.38.09-.76.14-1.15q2.16-13.82,15.56-22.32a2.11,2.11,0,0,0,.14-.22,30.64,30.64,0,0,1,8.93-7.41,78.9,78.9,0,0,1,11-4.9c.57-.19,1.1-.38,1.58-.57q.87,2.16,2.16,5.47,3.88,10.21,3.89,18.14c0,.08-.22,1.66-.65,4.76-.14,1.07-.31,2.32-.5,3.74q-2.75,8.36-10.81,8.35a130.25,130.25,0,0,1-16-1.73c-.21-.69-.43-1.33-.65-1.94l-2.59-6.19a7.9,7.9,0,0,0-2.09-2.67,19.09,19.09,0,0,0-2.88,9.51C688.69,1460.88,686.29,1460.6,684.37,1460.4Zm456.54-274.93q14.55,9.22,17,24.34a5.22,5.22,0,0,1,.15,1.3q-3.16.29-7.92.86a21.34,21.34,0,0,0-3-10.37,10.63,10.63,0,0,0-2.44,3l-2.74,6.77c-.19.57-.39,1.24-.58,2q-12.81,1.88-17.42,1.87-8.79,0-11.81-9.07c-.2-1.54-.39-2.88-.58-4-.38-3.36-.58-5.09-.58-5.19q0-8.64,4.18-19.73c1-2.4,1.73-4.41,2.31-6a12.58,12.58,0,0,0,1.72.72,71.09,71.09,0,0,1,12,5.33,32.63,32.63,0,0,1,9.65,8.07Z" style="fill:#cb2069;fill-rule:evenodd"/><path d="M724.41,323.66q-3-5.91-6.2-11.09-4.89-8.35-10.08-15.84a103.08,103.08,0,0,0-.14-18.44q-5.32-13.25-10.8-27.07.57-5.33-4.61-12.1l-.15-.14q-8.34-10.66-6.48-16.85a.43.43,0,0,0,.15-.29q5.76-4.32,13.25,6.91c2.3,3.36,4.13,5.43,5.47,6.19q3,1.74,6.34-2.44-.15-6.19-5.48-23.19-4.45-14.84-3-23.62,7.2-4.91,9.79,4.61,4.18,13.68,6,15.12.59-13.68,1.15-21.17,1-12.83,10.23-14.4.29,25.77,8.21,63.37.43,2.73,1.15,5.61a62.31,62.31,0,0,1-5.47-6.62q-16-21.32-22.61-38.46l-1-1.58q-1,3.89.43,12.53.57,4.17,6.77,21.6,6,17.28,6.77,21.32,4.46,28.08,3,41.19Q725.13,304.5,724.41,323.66ZM1029.29,634c-1.44-2.69-2.68-5.18-3.74-7.49a82,82,0,0,1-6.34-13.68q-3.88-11.24,3.46-19.59L1024,592a61.29,61.29,0,0,0,8.35,5.9q12.86,7.73,30.1,10.08,12.39,1.74,35.43.87c2.21-.19,4.42-.34,6.62-.43a14,14,0,0,0-2.88,2.16,24.08,24.08,0,0,0-2.45,2.88q-3,4.76-2.37,8.13t1.73,7.78q1,4.44,7.41,16.2a299.78,299.78,0,0,1,12.39,28.09q-14.11-7.07-42-25.78-21.21-12.27-39.47-13.68A57,57,0,0,0,1029.29,634ZM1338.65,310.7l-.15.14q-4.32,6.48-3.45,11.24-4,13-7.92,25.2a87.29,87.29,0,0,0,1,16.85,170.36,170.36,0,0,0-8.21,15.12c-.68,1.15-1.3,2.26-1.87,3.31q-1.59,3.31-3.17,6.92c-.29-2.11-.53-4.23-.72-6.34q-1.59-13.68-3.89-25.06-2.16-11.67.14-37.59.28-3.6,4.75-19.73t4.76-20q.72-7.92-.43-11.23l-.87,1.15q-4.61,16.27-18,36.58a37.89,37.89,0,0,1-4.47,6.19q.43-2.44.72-4.89a342.15,342.15,0,0,0,3.6-37.3,184,184,0,0,0-.28-20.74q8.49.72,10.36,12.38c.2,1.92.53,4.23,1,6.92q.59,5,1.3,12.09,1.44-1.44,4.32-12.67a5.22,5.22,0,0,1,.15-1.3q1.86-8.93,8.64-4.75a24.16,24.16,0,0,1,.72,4.75,57.79,57.79,0,0,1-2,16.86q-3.6,15.69-3.46,21.31c2.12,2.4,4.08,3,5.91,1.73q1.72-1,4.61-5.91,6.18-10.8,11.37-7.2a.41.41,0,0,0,.15.29Q1341.24,302,1338.65,310.7Zm72.58,597.1q-13-3.74-30.1-16.85-21.74-17.57-28.66-23.91-6.9-5.61-9.21-10.8-3.32-5.32-.43-13.53c.22-1.26.44-2.49.64-3.68q1.27-7.18,2.09-12.17,1-6.61,1.87-12l1.73,1.3a16.65,16.65,0,0,0,.15,2.8,27.53,27.53,0,0,0,4.6,11.67c.57.87,1.2,1.76,1.88,2.67q5.18,6.61,15.12,4.32-4.9,20.16,9.65,40,5.61,6.19,15.41,15.12Q1401.3,897.88,1411.23,907.8ZM782,974.05q-2.88-3.88-6.62-17.14a83.55,83.55,0,0,0,20-7.2,101.83,101.83,0,0,0,47-53q10.8-3,16.85-4.32.57,7.5.86,22.76a46.94,46.94,0,0,1-1.15,10.22,10,10,0,0,1-6.62,7.06q-12.67,6-35.87,21.17l-5.32,3.46Q792.86,968.63,782,974.05Zm655.72-50.84-16.56,3.31q3.18-11.22-3.31-16.84a142.24,142.24,0,0,0,19.73.72v12.24A1.2,1.2,0,0,1,1437.73,923.21Zm-717.21,309.5a33,33,0,0,1-2.16,3q-4.86-.29-9.22-.5a222.52,222.52,0,0,0-26.36.07q-12.43,1.1-19.87,6.48l-9.51-1.8q6.24-3.84,14.69-8.57,35.43-19.58,42.49-32.54,1.44-2.74,1.15-10.66c.1-.39,1.39-1.34,3.89-2.88s4.66-5.14,6.48-10.52l9.36-.57a65.34,65.34,0,0,1,.58,32.26,76,76,0,0,1-4,12.67q-1.31,3.06-2.88,6A77.49,77.49,0,0,1,720.52,1232.71Zm-189.1,176.14a20.07,20.07,0,0,1,5.47-6l12.1,7.63a70.6,70.6,0,0,0,2.45,16q1,4.61,4.32,15.55-15.12,1.44-23.19-14Q526.67,1416.92,531.42,1408.85ZM565,1419.93q26.92,13.83,32.11,16.71-12,7.78-22.18,2.88T565,1419.93Z" style="fill:#e1825f;fill-rule:evenodd"/><path d="M1314.89,389.48q-3.32,7.77-6.92,17-4.46,11.67-8.93,25.78-1.14,3.6-2.3,7.35c-1,2.78-1.83,5.47-2.59,8.06q-16.56,52.14-17.57,55-12.39,35-27.37,58.32-4.61-9.21-15.12-14.83a31.7,31.7,0,0,0-4.75-2.45q-2.6-1.29-25.78-8.35,6.76-33,37.88-81.23c.86-1.34,1.73-2.74,2.59-4.18l7.63-11.95q13-20.44,17.72-28.51c1.15-2.12,2.35-4.18,3.6-6.2q4.45-8.35,7.92-16.13a171.53,171.53,0,0,0,8.21-20.88q0-.72,7.05-52.86a37.89,37.89,0,0,0,4.47-6.19q13.39-20.31,18-36.58l.87-1.15q1.14,3.32.43,11.23-.3,3.9-4.76,20t-4.75,19.73q-2.3,25.92-.14,37.59,2.29,11.39,3.89,25.06C1314.36,385.25,1314.6,387.37,1314.89,389.48Zm23.76-78.78q2.6-8.64,4.61-15.7Q1345.42,300.61,1338.65,310.7Zm-10.51,53.43a87.29,87.29,0,0,1-1-16.85q3.88-12.24,7.92-25.2a6,6,0,0,0,2.3,3.74q1.88,4.17,10.08.29,7.78-3.32,9.36,2.59A159,159,0,0,0,1328.14,364.13ZM1134.43,547q-15.84-24.91-18.29-26.64a264.11,264.11,0,0,0-75.61-35q-.15,6.78-.58,14.26a375.08,375.08,0,0,1-6.77,53.43q-.06.13-2.23,6.12-2.81,7.74-9.14,25.28-5.62-22.18-2.45-56,1-9.16,1.87-16.41a.81.81,0,0,1,0-.22q1.08-9.46,1.73-15.48.85-9.36,1.29-17.28V464.65q81.81,2.31,103.41,46.09c.29,1.06.62,2.16,1,3.31v.44a1.33,1.33,0,0,0,.14.57.49.49,0,0,1,.15.58,118.69,118.69,0,0,1,4.32,19.15v.58c.09.09.09.24,0,.43Q1134,541.41,1134.43,547Zm-256.5,664.51a12,12,0,0,0,4.18-6.48c.48-2.4.72-3.65.72-3.74a1.59,1.59,0,0,1-.15-.72,67.4,67.4,0,0,1,21.46,3.31,57.3,57.3,0,0,1,7.64,3.17A45,45,0,0,1,933,1227.67q1.84,13-3.82,21.6a29.92,29.92,0,0,1-11.59,9.87c-.65.31-1.32.62-2,.93q-8.79,3.75-40.33,8.07l-10.37,2.16q-10.5,1.73-53.43,4.9-32.83,2.44-52.71,8.64c-.83.08-1.7.15-2.59.21a91.5,91.5,0,0,1-23.4-2.16h-.07q-6-1.29-12.68-3.24-4-1.17-7.63-2.3-4.17-1.27-7.78-2.45l-3.38-1.15a134.21,134.21,0,0,1-13.61-5.33,11.71,11.71,0,0,1-5,1.73q1.9-1.5,3.74-2.67l1-.65q6-3.6,11.09-3.6,6.3,0,45,8.5l4,.86q6.9,0,35.35-4.89,18.93-3.32,47.46-8.79,22.61-4.4,38-7.48,32.48-6.66,32.47-7.64a4.15,4.15,0,0,0-.07-.79q-.72-8.31-16.06-25.56A27.18,27.18,0,0,0,877.93,1211.54Zm520.78-419.1a34.15,34.15,0,0,0-.44-15.55,41.76,41.76,0,0,1,7.35-1.3q5.91-1.29,16.13,1.59,4.76.65,13.61,4.1,4.83,1.85,10.87,4.54,16.43,6.33,25.35,7.63,13.83,2.31,23.76-2.74a1,1,0,0,0,.29.72l-.29,12.25a17.83,17.83,0,0,1-.29,3q-9.21,2.31-15.26,1.87-28.38-2.58-40.18-9.5a74,74,0,0,0-24.63-7.49c-1.23-.18-2.48-.33-3.75-.43A38.38,38.38,0,0,0,1398.71,792.44Zm-39,3.89A48,48,0,0,1,1363,808a29,29,0,0,0,6.7,11.09,28.55,28.55,0,0,0,3,2.73q-3,4.62-9.36,4a9.67,9.67,0,0,1-2.24-.57q-4.85-2-5.69-9.65.44-8.93.44-9.36A19.24,19.24,0,0,1,1359.67,796.33ZM726,892.82q-2.9-5.7-5.54-11.73-2.3-5-4.4-10.3,1-1,21.17-9.22t44.51-38.45l.43,1.44c.67,2.11,1.1,3.41,1.29,3.89h.15a108.37,108.37,0,0,0,5.33,13,181.45,181.45,0,0,1-16.85,19q-18.54,18.42-37.66,28.44Q730.22,891,726,892.82Zm-56.31,367v-.08a2.8,2.8,0,0,1,.14-.79,5.2,5.2,0,0,1,2.74-3,39.64,39.64,0,0,1-8.21,2,13.63,13.63,0,0,1-2,.15h-.86a6.8,6.8,0,0,1-5.47-3.46q4.61-4.89,15.84-8.5c.77-.23,1.54-.45,2.3-.65a86.81,86.81,0,0,1,30.25-3.38c0,.19.19.48.57.86a8.33,8.33,0,0,1,.44,3.46,6.38,6.38,0,0,1-1.3,4,7.33,7.33,0,0,1-1.44,1.52,6.92,6.92,0,0,1-4.32,1.72,9.78,9.78,0,0,1-5.19-1.87,10.45,10.45,0,0,0-5.32-1.87q-3.9,0-16.28,8.5c-.63.45-1.23.9-1.8,1.36Zm42.05-71.58q.28,7.92-1.15,10.66-7.05,13-42.49,32.54-8.45,4.74-14.69,8.57L617,1233.07l-7.06-14a56.38,56.38,0,0,1,16.28,7.34,310.9,310.9,0,0,0,36.29-15.26Q675.88,1204.63,711.73,1188.21ZM692,1466c1.92.29,4,.72,6.34,1.3,1,.28,2,.57,2.95.86h.07q.76,2.88,1.44,5.26l3.89,10q-9.5-2.31-13.54-13a27.46,27.46,0,0,1-.79-2.67l-.07-.22C692.17,1467.06,692.07,1466.53,692,1466Zm-5.83,6.48.07.15a1.09,1.09,0,0,0,.15.43A19.5,19.5,0,0,0,689,1477h.07a.68.68,0,0,1,.22.29l.28.28c.1.14.19.29.29.44l.29.28h.07c.19.2.38.39.58.58l.07.07.29.29a1,1,0,0,1,.14.22l.15.07a1,1,0,0,1,.28.21l.08.08c.66.56,1.35,1.12,2.08,1.65l.15.15.14.07a1,1,0,0,1,.29.21,1.77,1.77,0,0,0,.43.29l.29.15.29.28.58.29q-10.66,3.6-22.47-4.46-12.68-10.67-19.45-14.12-4.89-4.61-3.6-12.38a.4.4,0,0,1,.15-.29,25.63,25.63,0,0,1,6.33-13,28.53,28.53,0,0,1,5.19-5,23.7,23.7,0,0,1,6.91-3.6,16.33,16.33,0,0,1,3.46-.72h.29a11.07,11.07,0,0,1,5.33.72,49.25,49.25,0,0,1-5.48,2.59,35.4,35.4,0,0,0-6.62,3.74q-6.63,4.76-6.63,11.09,0,4,24.34,15.7a.79.79,0,0,1,.36.14,20.24,20.24,0,0,0,1.52,8.07v.14a.38.38,0,0,0,.14.29.64.64,0,0,0,.14.44A.94.94,0,0,0,686.17,1472.5Zm838.41-186.21q-3-.3-6.48-.58l-32.41-4.18-7.92-3-.29-1c-.28-.67-.09-1.92.58-3.74q.87-2.46,31.68,1.15,15.42,1.88,23.91,3.31a2.57,2.57,0,0,0-.14.72,1.83,1.83,0,0,1-1.3.58c-.67.48-1.25.86-1.73,1.15a18.14,18.14,0,0,1-3.45,1.15c-1.35.58-2.69,1.11-4,1.59Zm-17.86,20.59-2.16.72c-1.25.29-2.35.53-3.31.72a25.26,25.26,0,0,1-9.36,1.3q-3.6.14-6.92.14a9.17,9.17,0,0,1-3.17-.29l-3.6-.29a20.69,20.69,0,0,1-3.45-.57,20.48,20.48,0,0,1-3.75-.72c-1-.25-2-.49-3-.72-1.3-.31-2.59-.6-3.89-.87-2.59-1-5.19-1.82-7.78-2.59-1.63-.57-3.21-1.06-4.75-1.44q-3-1.15-5.76-2.16l-3.74-1.87-3.17-1.44q-3-1.44-6.05-2.59a.41.41,0,0,0-.29-.15q13.11-.43,7.06,3l67.68-.15q-3,.15-5.76.15,8.07,3.17,8.93,8.49a28,28,0,0,0-3.31,1.16Zm217.18-68.7q-15,19.72-32.26,23.55a39.77,39.77,0,0,1-11.38.79,15.6,15.6,0,0,1-5-.86,13.66,13.66,0,0,1-2.59-1.15l.29-1.59q6.35-1.31,17.86-15,3.63-4.28,7.77-9.79l23.62,4A5,5,0,0,0,1723.9,1238.18Zm-541.8-56.31a33.67,33.67,0,0,1,5.62,5.47q5.9,6.78,6.91,14.12a.42.42,0,0,1,.14.29q1.44,8.49-3.88,13.53-7.35,3.75-21.18,15.27-12.81,8.79-24.33,4.9l.57-.29a2,2,0,0,1,.58-.43,1.46,1.46,0,0,0,.57-.29c.2-.29.34-.43.44-.43l.14-.15c.19-.19.34-.29.43-.29l.15-.14.28-.14a4.54,4.54,0,0,0,.72-.58l.44-.43.28-.29a1.53,1.53,0,0,1,.58-.29v-.14l.29-.29.29-.14a2,2,0,0,0,.43-.72h.14a1.53,1.53,0,0,1,.43-.29l.15-.15a.42.42,0,0,0,.14-.28c.19-.2.39-.39.58-.58a28.45,28.45,0,0,0,2.88-4.32l.29-.58a.38.38,0,0,1,.14-.28.41.41,0,0,0,.14-.29,22.57,22.57,0,0,0,1.73-9.51,1.07,1.07,0,0,1,.43-.14q26.51-12.67,26.5-17,0-6.91-7.2-12.09a41.49,41.49,0,0,0-7.2-4,48.71,48.71,0,0,1-5.9-2.88,13,13,0,0,1,5.76-.72h.29a20.23,20.23,0,0,1,3.74.72A28.06,28.06,0,0,1,1182.1,1181.87Zm-32.4,35.29a2.64,2.64,0,0,1-.15.86l-.14.86a.4.4,0,0,1-.15.29q-.29,1.44-.72,2.88-4.45,11.52-14.83,14l4.32-10.8q.72-2.6,1.58-5.76c1-.29,2-.58,3.17-.86A54.64,54.64,0,0,1,1149.7,1217.16Z" style="fill:#ed9870;fill-rule:evenodd"/><path d="M1600.62,1427.86l-.58-.43a198.85,198.85,0,0,1-21.89-17.43q18.63-5.36,37.23-10.44,24-6.57,47.89-12.75,105.42-27.94,131.2-51.7a9.06,9.06,0,0,0,.29,2.16q1.58,20.31-11.52,32.83-10.66,9.38-28.66,15.13-21.46,5-31.69,8.64,12.52,6,17.57,10.51,9.36,7.2,10.37,16.71a59.36,59.36,0,0,0-17.71-14.4c-1.92-1.06-4-2.21-6.34-3.46q-5.76-3-13.82-6.77a127.74,127.74,0,0,0-15.7,3.75q-10.66,2.58-21.17,5.47-5.8,1.8-10.16,3.09-3.63,1.08-6.26,1.8Q1636.78,1416,1600.62,1427.86Zm-847.41,40.46q-1,6.63-.58,23.48a22.9,22.9,0,0,1-2.3,8.36l-1.66,2.52a13.63,13.63,0,0,1-2.08,2,14.72,14.72,0,0,1-6.2,2.81v-.07q-.28-2.87-.29-6.12,1.59-26.64,1.3-35.15-.09-3-.36-5.9a89.28,89.28,0,0,0-7.06-27.43q-1-2.3-2.09-4.54l-3.16-6.34q9.21-1.29,15.26,5.19c.1.09.19.19.29.29l.29.28a1.67,1.67,0,0,1,.29.44l.29.28q6.76,8.35,8.2,26.36l-.07,7.63a40,40,0,0,0,5.12,4.18q10.36,7.2,18,9.94a132.78,132.78,0,0,1-23.19-9.37Zm455.6-426.51q-7.93-12.78-30.89-19.95,16.15-8.83,32.84-16.34-.43,13.25-1.73,32.76C1209,1039.45,1208.88,1040.63,1208.81,1041.81Zm-209.9-21.53q10.38,3.69,18.14,6.2,22.34,7.18,35,9.93c1.87.38,3.76.74,5.69,1.08q-14.52,6.19-31.61,14.48-7.79-4.34-16.85-9.65c-3.87-1.69-7.87-3.32-12-4.9a80.24,80.24,0,0,0,1.51-11.23Q998.91,1023.9,998.91,1020.28ZM647,1296.87q-11.84,7.7-15.63,19.23a56.42,56.42,0,0,0-2.3,7.92,67.18,67.18,0,0,0-.8,28.44l2.38,9.15a36.64,36.64,0,0,1,1.22,16.34c0,.22,0,.43-.07.65q0,.87-3,16.85a151.51,151.51,0,0,1-16-16.56,270.38,270.38,0,0,1-22-31q-20.6-35.29-32.26-52-6.93-9.42-20.09-18.07l-.22-.14,102.54,18.21a25.22,25.22,0,0,0,3.17.72A27.07,27.07,0,0,0,647,1296.87Zm228.19-28.73q1.44,4.6,2.45,7.78c1.15,3.74,1.78,5.85,1.87,6.33.39,1.25.82,2.69,1.3,4.32a27.21,27.21,0,0,1-3,.72q-32.7,7.5-56.6,17.86-8.37,4.83-15.63,8.93-16.69-8.14-31-14.18l-3.68-1.52-2.52-1a191,191,0,0,0-49.25-13l13.54-2.45h.07a91.5,91.5,0,0,0,23.4,2.16c.89-.06,1.76-.13,2.59-.21q19.88-6.19,52.71-8.64,42.93-3.18,53.43-4.9ZM700.07,1436.93a28.22,28.22,0,0,1-18.15-4.75L676.3,1423l-.57-.14q4.17-4.47,9.36-10.66a28.71,28.71,0,0,0,6.34-15.12q1.14-8.94-2.16-15-1.59-2.88-2.6-4.47,13.11,13.83,30,32.84,5.4,6.15,9.86,11.88a36.79,36.79,0,0,0-4.82,1.52c-.48.19-1,.38-1.58.57a78.9,78.9,0,0,0-11,4.9,30.64,30.64,0,0,0-8.93,7.41A2.11,2.11,0,0,1,700.07,1436.93Zm833.58-158.71q-.29-7.35-12.24-8.93l-25.64-5c1-.61,2.12-1.3,3.46-2.09a87,87,0,0,0,9.22-6.33c1.09-.88,2.13-1.72,3.09-2.52l110.9,15.84c.39.51.8,1,1.22,1.51a5.57,5.57,0,0,0,.72.86l5.33,2.74q18,12,35.43,8.64a47.66,47.66,0,0,0,6.19-1.65,132.83,132.83,0,0,0,15.27,4.68c1.14.28,2.27.54,3.39.79a30.57,30.57,0,0,0-10.45,9.43q-8.36,13.83-6.77,16.13-11.08-3.3-29.81-1-20.45,2.16-34,8.64-13.11,5.48-34.56,15.42-22.65,11.25-34.42,15.19a73.47,73.47,0,0,0-18.44-29.6,58.67,58.67,0,0,0-14.83-14.11l.43-.14a28,28,0,0,1,3.31-1.16q-.86-5.32-8.93-8.49,2.74,0,5.76-.15a53.78,53.78,0,0,0,9.66-1.15,24.58,24.58,0,0,0,3.6-1.3,12,12,0,0,0,3.45-1.15c1.34-.57,2.55-1.1,3.6-1.58l-3-5.47-1.59-2.88c1.35-.48,2.69-1,4-1.59a18.14,18.14,0,0,0,3.45-1.15c.48-.29,1.06-.67,1.73-1.15a1.83,1.83,0,0,0,1.3-.58A2.57,2.57,0,0,1,1533.65,1278.22Zm-79.5,156.41q6.35-1.31,16.42-3.89,4.76-.87,8.93-1.87,5.48,3.45,14.4,8.06l-2.3.58q-3.88,1-16.13,3.31t-24.2,4.46A14.73,14.73,0,0,0,1454.15,1434.63Zm-357-172.4a14.63,14.63,0,0,1-6.48-2.88l-4.32-4.89a29.36,29.36,0,0,1-2.6-9.22q.58-18.43-.57-25.64v-1.15a146.46,146.46,0,0,1-25.2,10.08q8.34-2.88,19.58-10.8a35.32,35.32,0,0,0,5.47-4.46v-8.35q1.59-19.59,8.93-28.66l.29-.29a1.44,1.44,0,0,1,.29-.43,1.53,1.53,0,0,1,.43-.29,1.67,1.67,0,0,1,.29-.44q6.48-7.05,16.56-5.61l-3.45,6.91q-1.3,2.6-2.31,5a99.76,99.76,0,0,0-7.78,29.67c-.09,2.11-.19,4.27-.28,6.48q-.3,9.21,1.44,38.17Q1097.42,1259.07,1097.13,1262.23Zm20.31-91a30.09,30.09,0,0,0-5.33-1.44q3.75-4.86,8.13-10,1.29-1.52,2.67-3.09a1.94,1.94,0,0,0,.21-.29q18.32-20.4,32.34-35.43c-.68,1.15-1.59,2.79-2.74,4.9q-3.6,6.62-2.3,16.27a30.17,30.17,0,0,0,6.76,16.42l2.38,2.81q4.34,5,7.85,8.85a1.28,1.28,0,0,0-.58.15l-6.19,9.94a29.94,29.94,0,0,1-19.73,5.18l-.14-.14a32.63,32.63,0,0,0-9.65-8.07,71.09,71.09,0,0,0-12-5.33A12.58,12.58,0,0,1,1117.44,1171.21Z" style="fill:#061e5d;fill-rule:evenodd"/><path d="M597.09,1436.64q-5.18-2.88-32.11-16.71-7.2-4.61-16-9.5l-12.1-7.63q-9.6-6.48-20.81-13.83l-3.53-2.3q-48.09-35.87-48.53-36.29-28.08-20.18-51-32.56Q394,1307.17,389,1284a49.68,49.68,0,0,1-.72-19.44q10.08,27.8,37,41a348.89,348.89,0,0,1,67.4,42.92,439,439,0,0,0,52.71,36.29q6.2,3.62,12.53,7.06a376,376,0,0,1,65.1,44.22q16.41,12.24,27.65,15.55a.4.4,0,0,0-.15.29q-1.29,7.77,3.6,12.38-8.93-2.88-24.48-11.81-16.56-9.36-24.63-12.38Zm609.49-281.34a52.47,52.47,0,0,1-10.22,5.69,32.91,32.91,0,0,0-3.6,1.44,5.94,5.94,0,0,1-.72.29,1,1,0,0,0-.43.14l-1.45.58-.57.14c-.89.28-1.8.62-2.74,1q-7.77,2.45-19.44,5.61-3.51-3.85-7.85-8.85l-2.38-2.81a30.17,30.17,0,0,1-6.76-16.42q-1.31-9.64,2.3-16.27c1.15-2.11,2.06-3.75,2.74-4.9q-14,15-32.34,35.43a1.94,1.94,0,0,1-.21.29q-1.38,1.57-2.67,3.09-4.38,5.15-8.13,10a7.9,7.9,0,0,0-2.31-.57q-10.08-1.44-16.56,5.61a1.67,1.67,0,0,0-.29.44,1.53,1.53,0,0,0-.43.29,1.44,1.44,0,0,0-.29.43l-.29.29q-7.34,9.06-8.93,28.66v8.35a35.32,35.32,0,0,1-5.47,4.46q-11.24,7.92-19.58,10.8a146.46,146.46,0,0,0,25.2-10.08v1.15q-27.51,17.14-61.21,13.25-29.09-1.44-52.42-20.73-18.13-14.8-30.75-39.47-1.75-3.42-3.39-7.05c.17-3.07.33-6.07.51-9a115.92,115.92,0,0,0,10.3,6.12,118.58,118.58,0,0,0,14.18,6.12,135.25,135.25,0,0,0,36.37,7.27q5.32.29,10.8.29,26.64,0,51.13-15.84c.23-.15.47-.3.72-.44q17.2-11.11,48.67-39.89,32.27-29.37,42.06-36.44,10.08-7.05,17.71-7.63,7.79-.57,14.84,5.91,6.9,6.33,5.32,16.27a118.51,118.51,0,0,0-1.44,23V1126q.92,23.25,20,18.94Zm2.88,51.63a120.88,120.88,0,0,1-18.57,8.35q5.33-5,3.88-13.53a.42.42,0,0,0-.14-.29,66.86,66.86,0,0,0,12.46-5.33A50.67,50.67,0,0,0,1209.46,1206.93ZM997.25,1037.42c4.16,1.58,8.16,3.21,12,4.9q9.06,5.33,16.85,9.65-20.88,10.37-45.37,23.76-3.06,1.66-6,3.31,1.41-8.43,3.24-20.74Q992.86,1057.26,997.25,1037.42Zm-57.1,68.7a1.91,1.91,0,0,1,.07-.36l.07.14A1,1,0,0,0,940.15,1106.12ZM726.49,1422.31q-4.46-5.73-9.86-11.88-16.85-19-30-32.84,1,1.59,2.6,4.47,3.3,6,2.16,15a28.71,28.71,0,0,1-6.34,15.12q-5.19,6.19-9.36,10.66-10.61-2.82-17.93-5.26l-3-1-1.65-.65-4-1.58q-15.41-6.63-20.3-18.87,28.23,14,29.38-13.25v-4.32a108.07,108.07,0,0,0-1.3-21.17q-1.58-9.07,4.9-15t13.54-5.33q7.05.43,16.27,6.92t38.74,33.55q29.52,27.08,45.37,37.16,22.61,14.55,47.09,14.55,5.07,0,9.94-.29,25.8-1.72,46.52-12.39a109.35,109.35,0,0,0,13.61-8.49l1.37-1a150.1,150.1,0,0,1-18.8,36.15,101.16,101.16,0,0,1-17.64,18.86q-21.53,17.79-48.25,18.94-30.9,3.69-56.31-12v-1.15a132.78,132.78,0,0,0,23.19,9.37q-7.64-2.74-18-9.94a40,40,0,0,1-5.12-4.18l.07-7.63q-1.44-18-8.2-26.36l-.29-.28a1.67,1.67,0,0,0-.29-.44l-.29-.28c-.1-.1-.19-.2-.29-.29q-6-6.48-15.26-5.19C728,1422,727.26,1422.17,726.49,1422.31ZM896.8,1390.7q-.93-18-20.31-35-11.37-10.08-29.09-19.73-22.5-12.36-41.84-21.89,7.28-4.1,15.63-8.93,23.89-10.37,56.6-17.86a27.21,27.21,0,0,0,3-.72Q883,1293.64,887,1305q14.7,41.63,11.24,75Q897.71,1385.52,896.8,1390.7Z" style="fill:#0d2a77;fill-rule:evenodd"/><path d="M427,1246.39a144.78,144.78,0,0,0-24.77-6.19,39.1,39.1,0,0,1,16.84-9.22l6.92,13.68A14,14,0,0,0,427,1246.39Zm750.91-224.53q22.95,7.17,30.89,19.95-.4,6.11-.72,12.61a65.45,65.45,0,0,0-8.64-4.83q-16.82-7.85-41.26-8.64-63.51-2-178.44,43.56l-6.26,2.52c.4-2.28.83-5,1.29-8q2.93-1.65,6-3.31,24.48-13.39,45.37-23.76,17.1-8.28,31.61-14.48l2.23-.93,4-1.73a22.77,22.77,0,0,1,2.74-1q49.11-19.87,93.76-14l2.52.29Zm28.66,144.24q-12.12,8-24.48,15.77a28.06,28.06,0,0,0-7.49-3.89,20.23,20.23,0,0,0-3.74-.72h-.29a13,13,0,0,0-5.76.72,16.17,16.17,0,0,0-4.18,2.31l6.19-9.94a1.28,1.28,0,0,1,.58-.15q11.67-3.17,19.44-5.61c.94-.39,1.85-.73,2.74-1l.57-.14,1.45-.58a1,1,0,0,1,.43-.14,5.94,5.94,0,0,0,.72-.29,32.91,32.91,0,0,1,3.6-1.44,52.47,52.47,0,0,0,10.22-5.69Q1206.59,1160.47,1206.58,1166.1Zm-557.5,248.22c1.65.71,3.54,1.45,5.69,2.23l3,1q7.32,2.45,17.93,5.26l.57.14,5.62,9.22a12.27,12.27,0,0,0-3.74-2.16,11.07,11.07,0,0,0-5.33-.72h-.29a16.33,16.33,0,0,0-3.46.72,23.7,23.7,0,0,0-6.91,3.6q-33.71-21.31-66-44.51-5.61-4-11-8.35a217.82,217.82,0,0,1-46.23-52.42,104.25,104.25,0,0,0-20.59-23.91,457.32,457.32,0,0,0-55.52-40.11l75.25,13.4.22.14q13.15,8.64,20.09,18.07,11.65,16.71,32.26,52a270.38,270.38,0,0,0,22,31,151.51,151.51,0,0,0,16,16.56Q633.67,1407.69,649.08,1414.32Zm156.48-100.24q19.35,9.53,41.84,21.89,17.72,9.66,29.09,19.73-14.5-6.18-28.23-11.66-166.74-66.26-215.88-23.19c-1.15,1-2.26,2.06-3.31,3.17a56.42,56.42,0,0,1,2.3-7.92q3.79-11.53,15.63-19.23,12.79-8.41,35.06-12.31a149.22,149.22,0,0,1,37-.22,191,191,0,0,1,49.25,13l2.52,1,3.68,1.52Q788.87,1305.93,805.56,1314.08ZM1578.15,1410a198.85,198.85,0,0,0,21.89,17.43l.58.43,11.67,8.06a23.73,23.73,0,0,1-1.59,13.83l-1.15-.43q-35.21-13.75-67.83-57.33-5.52-7.34-11-15.55-18-30.09-26.21-41.62-3.55-4.77-6.91-8.64-10.45-12-19.16-15.12-4.85-1.86-10.51-3.89c1,.23,2,.47,3,.72a20.48,20.48,0,0,0,3.75.72,20.69,20.69,0,0,0,3.45.57l3.6.29a9.17,9.17,0,0,0,3.17.29q3.32,0,6.92-.14a25.26,25.26,0,0,0,9.36-1.3c1-.19,2.06-.43,3.31-.72l2.16-.72a58.67,58.67,0,0,1,14.83,14.11,73.47,73.47,0,0,1,18.44,29.6c0,.18.09.34.14.51a138.33,138.33,0,0,0,22.47,42.48A179,179,0,0,0,1578.15,1410Zm-136.09-111.76q-7.63-2.48-16.14-5.19-14-4.86-30.31-10.08-2.53-.79-5.11-1.58,2.94-.09,5.9-.29l1.73.29q2.71-.32,5.33-.86a13.24,13.24,0,0,0,1.87.86c1,.58,2,1.25,3,2a11,11,0,0,1,2.45,1.15c1.64.67,3.22,1.29,4.76,1.87q3,1.15,5.61,2.3,3.18,1.59,6.19,2.88c1.64.68,3.37,1.49,5.19,2.45a.41.41,0,0,1,.29.15q3,1.15,6.05,2.59Z" style="fill:#395fc1;fill-rule:evenodd"/><path d="M1794.47,1335.11q-25.79,23.76-131.2,51.7-23.93,6.18-47.89,12.75-18.6,5.09-37.23,10.44a179,179,0,0,1-15.55-16.42,138.33,138.33,0,0,1-22.47-42.48c-.05-.17-.1-.33-.14-.51q11.77-3.94,34.42-15.19,21.45-9.95,34.56-15.42,13.54-6.48,34-8.64,18.72-2.29,29.81,1-1.57-2.3,6.77-16.13a30.57,30.57,0,0,1,10.45-9.43q25.85,5.71,47.88,1.8l4.39-.79a116.21,116.21,0,0,1,17.5,8.42q11,6.48,15.41,9.36Q1791.59,1316.09,1794.47,1335.11ZM662.19,1433.62a28.53,28.53,0,0,0-5.19,5,25.63,25.63,0,0,0-6.33,13q-11.24-3.31-27.65-15.55a376,376,0,0,0-65.1-44.22q-6.33-3.43-12.53-7.06a439,439,0,0,1-52.71-36.29,348.89,348.89,0,0,0-67.4-42.92q-26.94-13.24-37-41a39.32,39.32,0,0,1,10.37-20.45,34.67,34.67,0,0,1,3.6-3.89,144.78,144.78,0,0,1,24.77,6.19,10.93,10.93,0,0,0,7.48,5l.22.08.51.93,5.76,6.48,4.46,2.31,17.5,3.09a457.32,457.32,0,0,1,55.52,40.11,104.25,104.25,0,0,1,20.59,23.91,217.82,217.82,0,0,0,46.23,52.42q5.34,4.32,11,8.35Q628.5,1412.3,662.19,1433.62Zm273.71-277c.34-5.73.7-11.17,1.08-16.35q1.34-17.65,3.17-34.13a1,1,0,0,1,.14-.22,17.53,17.53,0,0,0,1.44,2.09q5.91,6.91,18,6,5.34-.43,9.8-10.08a64.59,64.59,0,0,0,2.16-8.07q.66-2.62,1.8-8.86l6.26-2.52q114.93-45.6,178.44-43.56,24.43.79,41.26,8.64a65.45,65.45,0,0,1,8.64,4.83q-1.36,27.18-1.36,61.2-.13,11.81-.15,29.31-19.11,4.3-20-18.94v-4.61a118.51,118.51,0,0,1,1.44-23q1.59-9.94-5.32-16.27-7.07-6.48-14.84-5.91t-17.71,7.63q-9.8,7.07-42.06,36.44-31.46,28.79-48.67,39.89c-.25.14-.49.29-.72.44q-24.5,15.84-51.13,15.84-5.47,0-10.8-.29a135.25,135.25,0,0,1-36.37-7.27,118.58,118.58,0,0,1-14.18-6.12A115.92,115.92,0,0,1,935.9,1156.6Zm271.19,39.53a66.86,66.86,0,0,1-12.46,5.33q-1-7.35-6.91-14.12a33.67,33.67,0,0,0-5.62-5.47q12.36-7.8,24.48-15.77.08,11.4.15,24.56A54.8,54.8,0,0,0,1207.09,1196.13ZM876.49,1355.7q19.39,17,20.31,35a37.51,37.51,0,0,1-2.31,15,5.45,5.45,0,0,0-.28.72l-1.37,1a109.35,109.35,0,0,1-13.61,8.49q-20.72,10.66-46.52,12.39-4.87.29-9.94.29-24.48,0-47.09-14.55-15.84-10.08-45.37-37.16t-38.74-33.55q-9.23-6.48-16.27-6.92t-13.54,5.33q-6.48,5.91-4.9,15a108.07,108.07,0,0,1,1.3,21.17v4.32q-1.15,27.22-29.38,13.25,3-16,3-16.85c0-.22.06-.43.07-.65a36.64,36.64,0,0,0-1.22-16.34l-2.38-9.15a67.18,67.18,0,0,1,.8-28.44c1-1.11,2.16-2.16,3.31-3.17q49.14-43,215.88,23.19Q862,1349.52,876.49,1355.7Zm603,73.17q-4.17,1-8.93,1.87-10.08,2.6-16.42,3.89a20.18,20.18,0,0,0-.72-2.88q0-.23-3.45-10.16-1.21-3.58-2.88-8.42l9.93-4.61a48,48,0,0,0,8.79,10.22,69.62,69.62,0,0,0,7.92,6.2A45.85,45.85,0,0,0,1479.5,1428.87Z" style="fill:#193c96;fill-rule:evenodd"/><path d="M725.92,1505.41a36.5,36.5,0,0,1-8.86-7.56q-7-7.63-9.22-9.65a23.31,23.31,0,0,0-11.8-5.33q-.45-.27-.87-.57l-.29-.15a1.77,1.77,0,0,1-.43-.29,1,1,0,0,0-.29-.21l-.29-.22c-.73-.53-1.42-1.09-2.08-1.65l-.08-.08a1,1,0,0,0-.28-.21l-.29-.29-.29-.29-.07-.07c-.2-.19-.39-.38-.58-.58s-.44-.47-.65-.72l-.28-.28a.68.68,0,0,0-.22-.29,20.23,20.23,0,0,1-2.81-4.32l-.07-.15a12.52,12.52,0,0,1-.5-1.15,20.24,20.24,0,0,1-1.52-8.07c0-.94.1-1.9.22-2.88,1.92.2,4.32.48,7.2.87a20.88,20.88,0,0,0,.14,3.24c.08.5.17,1,.29,1.51s.17,1,.29,1.58l.07.22a27.46,27.46,0,0,0,.79,2.67q4,10.65,13.54,13l-3.89-10q-.67-2.39-1.44-5.26c-.18-.55-.35-1.08-.5-1.58l-.14-.58c0-.09-.05-.18-.08-.29l-.28-1.15c-.2-.77-.39-1.44-.58-2a130.25,130.25,0,0,0,16,1.73q8.07,0,10.81-8.35c.19-1.42.36-2.67.5-3.74.43-3.1.65-4.68.65-4.76q0-7.92-3.89-18.14-1.29-3.32-2.16-5.47a36.79,36.79,0,0,1,4.82-1.52c.77-.14,1.52-.27,2.24-.36l3.16,6.34q1.13,2.25,2.09,4.54a89.28,89.28,0,0,1,7.06,27.43q.27,2.92.36,5.9.29,8.5-1.3,35.15,0,3.26.29,6.12v.07h-.5a4.14,4.14,0,0,1-.65.14A17.41,17.41,0,0,1,725.92,1505.41Zm-128.83-68.77,7.92,3.46q-6.33.57-46.23,9.79-28.21,6.19-46.8,2.31a47.17,47.17,0,0,1-25.06-13.4,36.1,36.1,0,0,1-9.36-14.83,318.36,318.36,0,0,1,31.68-6.63q6-.85,22.18-8.49-4.75,8.06,1.15,19.15,8.07,15.4,23.19,14-3.32-11-4.32-15.55a70.6,70.6,0,0,1-2.45-16q8.79,4.9,16,9.5-.43,14.55,9.93,19.59T597.09,1436.64Zm515-266.87a30.09,30.09,0,0,1,5.33,1.44c-.58,1.64-1.35,3.65-2.31,6Q1111,1188.35,1111,1197c0,.1.2,1.83.58,5.19.19,1.15.38,2.49.58,4q3,9.07,11.81,9.07,4.61,0,17.42-1.87a9.4,9.4,0,0,0-.72,2.16l-.29,1.3a.41.41,0,0,1-.14.29l-.14.57a11,11,0,0,1-.44,1.73q-.85,3.16-1.58,5.76l-4.32,10.8q10.36-2.44,14.83-14,.43-1.44.72-2.88a.4.4,0,0,0,.15-.29l.14-.86a2.64,2.64,0,0,0,.15-.86c.09-.39.19-.87.28-1.44q.15-1.87.15-3.75,4.75-.57,7.92-.86c.09,1,.14,2,.14,3a22.57,22.57,0,0,1-1.73,9.51.41.41,0,0,1-.14.29.38.38,0,0,0-.14.28l-.29.58a28.45,28.45,0,0,1-2.88,4.32c-.19.19-.39.38-.58.58a.42.42,0,0,1-.14.28,1.75,1.75,0,0,0-.72.44,2,2,0,0,1-.43.72l-.29.14-.29.29a2.34,2.34,0,0,0-.58.43l-.28.29-.44.43a4.54,4.54,0,0,1-.72.58l-.28.14-.15.14c-.09,0-.24.1-.43.29-.77.58-1.54,1.11-2.3,1.59a25.94,25.94,0,0,0-12.82,5.76q-2.46,2.3-10.08,10.51-12.11,13.68-24.06,10.66a2.64,2.64,0,0,1-.86-.15h-.43q.28-3.17.29-6.76-1.74-29-1.44-38.17c.09-2.21.19-4.37.28-6.48a99.76,99.76,0,0,1,7.78-29.67q1-2.45,2.31-5l3.45-6.91A7.9,7.9,0,0,1,1112.11,1169.77Z" style="fill:#9d0948;fill-rule:evenodd"/><path d="M1742.26,1287.8l-4.39.79q-22,3.92-47.88-1.8c-1.12-.25-2.25-.51-3.39-.79a132.83,132.83,0,0,1-15.27-4.68q-14.3-5.53-18.14-12.75a68.13,68.13,0,0,1-4.18-7.78,47.47,47.47,0,0,1-3.74-10.65,3.21,3.21,0,0,0-.29-1.44v-2.17q3.45-5.46,4.89-7.34a37.6,37.6,0,0,1,4-3q2.16-1.74,5-4.32a26.91,26.91,0,0,0,3.46-3.89,22.53,22.53,0,0,1,1.58-1.73,11.07,11.07,0,0,1,2.45-2.74l.43-.43c.72-.7,1.44-1.38,2.16-2a12.45,12.45,0,0,1,2.74-2.73,48.34,48.34,0,0,1,6.19-4.47,28.56,28.56,0,0,1,5-3.45c1.15-.68,2.26-1.3,3.31-1.87l3.75-1.88c1.44-.48,2.78-.91,4-1.29a21,21,0,0,1,4.18-1.73,45,45,0,0,1,4.46-1.44c1.63-.48,3.17-.86,4.61-1.15,1.63-.48,3.22-.87,4.75-1.16a34.48,34.48,0,0,0,3.75-1,32.36,32.36,0,0,1,14.54-.15q4.9,3.6-.72,8.79a23,23,0,0,0-2.3,1q-2.59,1.29-4.9,2.59a12.35,12.35,0,0,0-5.76,2.3.94.94,0,0,1-.43.43c-.2.1-.34.1-.43,0a5.77,5.77,0,0,1-2.31.87,18.58,18.58,0,0,1-3,1.44,21.55,21.55,0,0,1-2.74,1.15,22.67,22.67,0,0,0-2.88,1.58,3.7,3.7,0,0,1-1,.72,2.19,2.19,0,0,0-.57.44l-.58.28a48.9,48.9,0,0,0-5,6.49,10.57,10.57,0,0,0-.14,2.88c-.1.38-.2.81-.29,1.29-.1.19.24,1.2,1,3a.38.38,0,0,1,.28.14q-4.14,5.52-7.77,9.79-11.52,13.66-17.86,15l-.29,1.59a13.66,13.66,0,0,0,2.59,1.15,15.6,15.6,0,0,0,5,.86,39.77,39.77,0,0,0,11.38-.79q17.23-3.82,32.26-23.55h.29l4,.15-.07-.44c2.49-1.05,5.18-2.35,8.06-3.88a30.62,30.62,0,0,0,3-1.59q8.36-4.76,6.33-7.49c-1.53-2.68-2.64-4.7-3.31-6q-1.87-3.6-3.45-3.88-6.78-2.88-7.21-6.63a4.6,4.6,0,0,1,1.44-3.6,3.43,3.43,0,0,1,3.46-1.15l6.91,1.58a27.75,27.75,0,0,1,6.77,1.88q1.73.86,5.33,4.89l5.62,7.49q4,4.89.72,9.94c-1.35,1.82-3.07,4-5.19,6.62a56.31,56.31,0,0,1-7.2,7.35c-1.53,1.42-2.76,2.57-3.67,3.45l24.84-.29q11.67-.57,12.53,6.78a2.22,2.22,0,0,1-1,.57,5.66,5.66,0,0,1-1.44,1.3,14.2,14.2,0,0,1-2.88,1.73q-1.73,1.14-3.45,2.16l5.9,6.62c-.86.58-1.92,1.25-3.17,2a6.46,6.46,0,0,1-2.73,1.72,16.18,16.18,0,0,1-3.17,1.88,61.82,61.82,0,0,1-8.35,2.88,34,34,0,0,1-5.19,1q7.92,1.44,9.51,6.19a16.16,16.16,0,0,0-2.74,1.58l-2,1Q1761.45,1284.37,1742.26,1287.8ZM708.13,296.73a174.2,174.2,0,0,0-34.27-36.58q1.44-6.63,10.08-3.6,9.36,3.6,11.09-1a7.87,7.87,0,0,0,2.16-4.32q5.47,13.83,10.8,27.07A103.08,103.08,0,0,1,708.13,296.73Zm16.28,26.93q.72-19.16,2.73-34.85,1.44-13.11-3-41.19-.72-4-6.77-21.32t-6.77-21.6q-1.44-8.64-.43-12.53l1,1.58q6.62,17.15,22.61,38.46a62.31,62.31,0,0,0,5.47,6.62q11.81,56.46,12,57.32,6.34,16.28,18.58,40.33,14.4,28.65,49.55,81.66,40.32,61.64,52.56,87.85a67.31,67.31,0,0,1-23.18,13.82,5.1,5.1,0,0,1-1.44.44c-1.06.28-2.16.57-3.32.86a59.06,59.06,0,0,1-24.62,1.44q-23.48-31.11-46.67-90.88-6.33-15.84-18.72-47.67a459.7,459.7,0,0,0-19.73-42.19c-1.63-2.5-3-4.85-4.18-7.06a17.49,17.49,0,0,1-2.3-4.47Q726.13,326.83,724.41,323.66Zm380.06,284.73c-2.2.09-4.41.24-6.62.43q-23,.85-35.43-.87-17.25-2.36-30.1-10.08A61.29,61.29,0,0,1,1024,592c-.58-2-1-3.46-1.3-4.32l-.86-3.17q6.33-17.54,9.14-25.28,2.17-6,2.23-6.12a375.08,375.08,0,0,0,6.77-53.43q.43-7.48.58-14.26a264.11,264.11,0,0,1,75.61,35q2.44,1.73,18.29,26.64.13,4.47,0,8.93Q1127.23,599,1104.47,608.39ZM775.39,956.91l-6.91-6.48-.65-.58q-24.51-22.22-41.84-57,4.23-1.79,8.43-4,19.13-10,37.66-28.44a181.45,181.45,0,0,0,16.85-19,122.36,122.36,0,0,0,16.13,24.05q2.55,3,5.25,5.83a149.42,149.42,0,0,0,32.05,25.42,101.83,101.83,0,0,1-47,53A83.55,83.55,0,0,1,775.39,956.91Zm722.26,288q2.08-1.67,1.44-3.39c-.57-1.68-1-3.14-1.44-4.39-.36-1-.64-1.94-.87-2.66q-1.29-4.47-2.88-5a17.53,17.53,0,0,1-5.47-5.11.52.52,0,0,0-.07-.15c-.27-.81-.54-1.63-.8-2.45a5.21,5.21,0,0,1,0-.79,2,2,0,0,1,.08-.22,5.46,5.46,0,0,1,2.23-3.38,3.25,3.25,0,0,1,3.89-.29q2,.72,7.2,2.88t6.77,3.6q1.57,1.15,4.61,6.48l4.32,9.08q3.6,6-1.15,10.94c-.52.46-1.07.94-1.66,1.44s-1.48,1.27-2.31,2-2,1.64-3.09,2.52a87,87,0,0,1-9.22,6.33c-1.34.79-2.49,1.48-3.46,2.09l25.64,5q12,1.59,12.24,8.93-8.49-1.44-23.91-3.31-30.81-3.6-31.68-1.15c-.67,1.82-.86,3.07-.58,3.74l.29,1,7.92,3,32.41,4.18q3.45.29,6.48.58l3,5.47c-1,.48-2.26,1-3.6,1.58a12,12,0,0,1-3.45,1.15,24.58,24.58,0,0,1-3.6,1.3,53.78,53.78,0,0,1-9.66,1.15l-67.68.15q6-3.46-7.06-3c-1.82-1-3.55-1.77-5.19-2.45q-3-1.29-6.19-2.88-2.6-1.14-5.61-2.3c-1.54-.58-3.12-1.2-4.76-1.87a11,11,0,0,0-2.45-1.15c-1-.77-2.06-1.44-3-2a13.24,13.24,0,0,1-1.87-.86c-.4-.23-.79-.47-1.15-.72-1.06-.87-2-1.64-2.74-2.31q-1.87-1.44-3.74-3l-.15-.29q-.57-.29-3-3.89-2-3.88-3.89-12.24a55.87,55.87,0,0,1-1.88-12.25,9.22,9.22,0,0,0,.15-1.58l.29-2.3a83.38,83.38,0,0,1,6.91-6.63,16.83,16.83,0,0,1,4.9-2.45,60.4,60.4,0,0,0,6.33-3.74c.79-.41,1.54-.85,2.24-1.3a20.8,20.8,0,0,0,2.37-1.87,18.15,18.15,0,0,1,2.16-1.58,13.39,13.39,0,0,1,3-2.31c1.15-.77,2.25-1.49,3.31-2.16a16,16,0,0,1,3.6-2.3,59.7,59.7,0,0,1,7.63-3.46,54.21,54.21,0,0,1,6.19-2.73c1.35-.39,2.65-.77,3.9-1.16a30.68,30.68,0,0,0,4.32-1.29,34.29,34.29,0,0,0,4.75-.58,29.25,29.25,0,0,1,4.75-.72c1.83-.29,3.46-.48,4.9-.57a32.46,32.46,0,0,1,5.33-.15,24.38,24.38,0,0,1,5.18-.29l4.32-.28a33.5,33.5,0,0,1,10.3,1.15,28.1,28.1,0,0,1,5.11,1.87q4.52,4.8-2.3,9.07a1.59,1.59,0,0,0-.29.15,8.31,8.31,0,0,0-2.45.72q-3.16.72-6,1.44a13.57,13.57,0,0,0-6.62,1.44,1.62,1.62,0,0,1-.58.28h-.29a14.31,14.31,0,0,1-2.59.29c-1.25.29-2.45.63-3.6,1-1.06.19-2.06.38-3,.58-1.15.29-2.39.62-3.74,1a1.41,1.41,0,0,1-1,.43,2.53,2.53,0,0,1-.72.29,1.36,1.36,0,0,0-.86.57q-5.62,4.18-6.77,5.76a10.34,10.34,0,0,0-.72,2.74c-.1.38-.24.86-.43,1.44-.29.29-.24,1.44.14,3.45.19,0,.34.15.43.44l24.34,9.22a15.13,15.13,0,0,0,1.88.57h.14c1.67.36,3.37.75,5.11,1.15q3.69-.79,8.14-2.16a21.42,21.42,0,0,1,3.6-1,28,28,0,0,0,6.41-2.88A6.57,6.57,0,0,0,1497.65,1244.88Zm-47.24-351.05-1.59,3.31-.28.72c-.29,0-.44.1-.44.29l-1.58,1.73a4.82,4.82,0,0,0-.72,1.3,13,13,0,0,0-.86,1c-.49.67-1,1.29-1.44,1.87q-2.6,2.73-5.91,6.34a142.24,142.24,0,0,1-19.73-.72l-6.63-1.88q-9.93-9.93-15.26-15-9.79-8.93-15.41-15.12-14.55-19.87-9.65-40-9.95,2.3-15.12-4.32c-.68-.91-1.31-1.8-1.88-2.67a27.53,27.53,0,0,1-4.6-11.67,16.65,16.65,0,0,1-.15-2.8,111.82,111.82,0,0,1,1-13.54q.58-8.22,5.9-12a29.53,29.53,0,0,1,3.6,5.62,19.24,19.24,0,0,0-3.88,9.94q0,.43-.44,9.36.84,7.61,5.69,9.65a9.67,9.67,0,0,0,2.24.57q6.33.58,9.36-4a84.91,84.91,0,0,0,8.93-5.9,53.14,53.14,0,0,0,12.17-12.39,33.38,33.38,0,0,0,5-11.09,38.38,38.38,0,0,1,12.52-1.29c1.27.1,2.52.25,3.75.43a74,74,0,0,1,24.63,7.49q11.81,6.91,40.18,9.5,6,.43,15.26-1.87a51.52,51.52,0,0,1-3.31,13.11q-2.29,6-4.61,12.24-5.33,13-11.52,25.2a212.41,212.41,0,0,1-17.86,27.08Q1454.15,889.22,1450.41,893.83Zm-732.05,341.9,3.81,2.45q29.36,17.58,71.51,4.61,10.23-3.16,35.72-12.82t39.46-14.25l9.07-4.18a27.18,27.18,0,0,1,6.48,4.9q15.35,17.25,16.06,25.56a4.15,4.15,0,0,1,.07.79q0,1-32.47,7.64-15.35,3.09-38,7.48-28.53,5.47-47.46,8.79-28.44,4.89-35.35,4.89l-4-.86q-38.69-8.49-45-8.5-5.12,0-11.09,3.6l-1,.65q-1.83,1.17-3.74,2.67a15.81,15.81,0,0,1-3.6-.44,16.21,16.21,0,0,1-2.16-.5,12.42,12.42,0,0,1-3.75-2.09,9.31,9.31,0,0,1-1.29-1.15l-.08-.07-.36-.36-.36-.43a7.23,7.23,0,0,1-.79-1.23,4.57,4.57,0,0,1-.43-3.09l.07-.08c.57-.46,1.17-.91,1.8-1.36q12.39-8.5,16.28-8.5a10.45,10.45,0,0,1,5.32,1.87,9.78,9.78,0,0,0,5.19,1.87,6.92,6.92,0,0,0,4.32-1.72,7.33,7.33,0,0,0,1.44-1.52,6.38,6.38,0,0,0,1.3-4,8.33,8.33,0,0,0-.44-3.46c-.38-.38-.57-.67-.57-.86a86.81,86.81,0,0,0-30.25,3.38c-.76.2-1.53.42-2.3.65q-11.24,3.6-15.84,8.5a14,14,0,0,1-1.16-2.73,24.67,24.67,0,0,1,6.2-8.58c.6-.53,1.22-1,1.87-1.51q7.44-5.38,19.87-6.48a222.52,222.52,0,0,1,26.36-.07Q713.5,1235.44,718.36,1235.73Zm-17,232.45h-.07c-.94-.29-1.93-.58-2.95-.86-2.3-.58-4.42-1-6.34-1.3-.12-.51-.21-1-.29-1.51a20.88,20.88,0,0,1-.14-3.24,19.09,19.09,0,0,1,2.88-9.51,7.9,7.9,0,0,1,2.09,2.67l2.59,6.19c.22.61.44,1.25.65,1.94s.38,1.25.58,2l.28,1.15c0,.11.05.2.08.29l.14.58C701,1467.1,701.18,1467.63,701.36,1468.18Zm-1.29-31.25q-13.4,8.5-15.56,22.32c0,.39-.1.77-.14,1.15-.12,1-.19,1.94-.22,2.88a.79.79,0,0,0-.36-.14q-24.33-11.67-24.34-15.7,0-6.33,6.63-11.09a35.4,35.4,0,0,1,6.62-3.74,49.25,49.25,0,0,0,5.48-2.59,12.27,12.27,0,0,1,3.74,2.16A28.22,28.22,0,0,0,700.07,1436.93Zm440.84-251.46a29.94,29.94,0,0,0,19.73-5.18,16.17,16.17,0,0,1,4.18-2.31,48.71,48.71,0,0,0,5.9,2.88,41.49,41.49,0,0,1,7.2,4q7.2,5.17,7.2,12.09,0,4.32-26.5,17a1.07,1.07,0,0,0-.43.14c0-1.05,0-2.06-.14-3a5.22,5.22,0,0,0-.15-1.3Q1155.46,1194.69,1140.91,1185.47Zm9.22,26.5q0,1.88-.15,3.75c-.09.57-.19,1-.28,1.44a54.64,54.64,0,0,0-6.92,1.44c-1.15.28-2.21.57-3.17.86a11,11,0,0,0,.44-1.73l.14-.57a.41.41,0,0,0,.14-.29l.29-1.3a9.4,9.4,0,0,1,.72-2.16c.19-.77.39-1.44.58-2l2.74-6.77a10.63,10.63,0,0,1,2.44-3A21.34,21.34,0,0,1,1150.13,1212Z" style="fill:#ffaa83;fill-rule:evenodd"/><path d="M685.67,1471.35a12.52,12.52,0,0,0,.5,1.15.94.94,0,0,1-.22-.28.64.64,0,0,1-.14-.44.38.38,0,0,1-.14-.29Zm8.2,10.08.29.22-.14-.07Zm-2.44-1.94-.15-.07a1,1,0,0,0-.14-.22Zm-1.23-1.23h-.07l-.29-.28c-.1-.15-.19-.3-.29-.44C689.76,1477.79,690,1478,690.2,1478.26Zm-1.15-1.29H689a19.5,19.5,0,0,1-2.59-3.89,1.09,1.09,0,0,1-.15-.43A20.23,20.23,0,0,0,689.05,1477Zm7,5.9-.58-.29-.29-.28Q695.59,1482.6,696,1482.87ZM1152.29,1230l-.15.15a1.53,1.53,0,0,0-.43.29h-.14A1.75,1.75,0,0,1,1152.29,1230Zm-2.31,2a2.34,2.34,0,0,1,.58-.43v.14A1.53,1.53,0,0,0,1150,1232Zm-4.6,3.46c.76-.48,1.53-1,2.3-1.59l-.14.15c-.1,0-.24.14-.44.43a1.46,1.46,0,0,1-.57.29,2,2,0,0,0-.58.43Z" style="fill:gray;fill-rule:evenodd"/><path d="M1031.17,664.41q-4-5.32-8.5-10.95a113.18,113.18,0,0,1,19.44,6.85,71.11,71.11,0,0,1,11.81,6.84q22.9,19.58,34.57,27.65l11.66,10.66L1111.67,716l15.41,14,4.47-21.75,2.3-11.09,2.31-10.66a55,55,0,0,1,7.63,8.93,114.32,114.32,0,0,1-1.94,20.53l-.51,2.52q-.13.57-4,12.67-4.75,11.8-9.79,10.8-2.31-.57-30.68-27.65-29.67-28.37-32-30-9.46-6.62-20.52-12.89-5.8-3.24-12-6.4ZM1138.53,673l2.81.07a91.38,91.38,0,0,1,2.45,21.32c-.29-.77-.62-1.59-1-2.45l-2.45-5.48c.1-.09.05-.14-.14-.14a.46.46,0,0,0-.14-.29,10.55,10.55,0,0,0-.29-1.29c-1-2.2-1.89-4.26-2.67-6.2s-1.41-3.87-1.94-5.61Z" style="fill:#ffbd59;fill-rule:evenodd"/><path d="M1043.7,271.81q-.29,10.08-10.23,17.72-10.37,7.64-25.2,7.92h-.15q-14.82.29-25.34-7.06T972,273l-.44-22.76a78.4,78.4,0,0,1-13-10.08q-20.31-19.74-20.88-48.25t19.15-48.68q19.74-20.3,48.25-20.88,28.51-.43,48.82,19.16,20.46,19.72,20.89,48.1t-19.16,48.82a68.17,68.17,0,0,1-12.38,10.37Zm-16.42-104.27q-7.2-2.29-13.11,3.32a54.67,54.67,0,0,0-8.93,10.51,3.5,3.5,0,0,1-4.32,1.44,3.15,3.15,0,0,1-1.72-1.3v-.14a59.15,59.15,0,0,1-4.47-5.62q-5-6.92-12.53-5.33a8.81,8.81,0,0,0-7.63,3.89h-.29a17.73,17.73,0,0,0-3.17,7.92,18.16,18.16,0,0,0-.29,5.62q1.44,12.53,3.6,24.05,2,12.39,4.47,25.35,2.16,14.4,4.32,29.38h.14c.67,4.41,1.2,9,1.59,13.68a5.41,5.41,0,0,0,2.16,3.75,6.17,6.17,0,0,0,4.17,1.15,4.67,4.67,0,0,0,3.61-1.87,5.48,5.48,0,0,0,1.29-4.18q-.57-7.2-1.73-14.12-2.16-15-4.61-29.66-2.3-12.82-4.46-25.21-1.87-11.52-3.31-23.62a4.11,4.11,0,0,1,.14-2.44,5.65,5.65,0,0,1,.87-2.45,1.59,1.59,0,0,0,.72-.15,1.62,1.62,0,0,1,1.87.87c1.53,2,3.17,4.08,4.89,6.19l-.14-.14a14.38,14.38,0,0,0,7.06,5.18q10.93,3.6,17.28-5.9a47.41,47.41,0,0,1,7.06-8.65l.28-.14a2.05,2.05,0,0,1,2.31-.58.56.56,0,0,1,.43.15,1.7,1.7,0,0,1,1,1l-.29-.29a26.66,26.66,0,0,1,1.73,10.94q-1.44,9.07-2.74,18.44-2,12.24-3.31,23.91-1.15,7.92-2.16,15.84v.14a233.93,233.93,0,0,1-5.76,27.65,5.81,5.81,0,0,0,.57,4.32,5.42,5.42,0,0,0,3.32,2.6,6.25,6.25,0,0,0,4.32-.44,6.62,6.62,0,0,0,2.59-3.45,251,251,0,0,0,6.05-29.24q.87-7.92,2-16,1.44-11.38,3.45-23.33,1.44-9.8,2.59-19.3a32.25,32.25,0,0,0-2.3-16.42q-2.88-6.48-8.93-7.49Zm171.38,628.65Q1178.5,805,1172,803.68q-8.07-1.74-21.75-11.67a103.44,103.44,0,0,0-14.69-9.07,36,36,0,0,0-7.49-2.74q-15.27-3.16-32.69,8.21T1054.07,796a42.87,42.87,0,0,1-4.32-.86q-19.85-4.95-22.33-26.36-2.73-23.48,5.91-41.62,8.79-18,8.64-35.86-.15-13-10.8-26.93l1.15.58q6.23,3.15,12,6.4,11.06,6.27,20.52,12.89,2.3,1.59,32,30,28.37,27.07,30.68,27.65,5,1,9.79-10.8,3.89-12.09,4-12.67l.51-2.52a114.32,114.32,0,0,0,1.94-20.53,14.44,14.44,0,0,1,1.59,2.31,21.74,21.74,0,0,0-1.59-3.31,91.38,91.38,0,0,0-2.45-21.32l1.73.58q10,4.25,18.15,16c.29.4.58.81.86,1.23l.58.86c.77,1.25,1.53,2.55,2.3,3.89a189.7,189.7,0,0,1,8.64,20q2.75,6.77,7.2,18.87a33.14,33.14,0,0,0,5.33,25.49,74.6,74.6,0,0,1,10.08,21.31A48.26,48.26,0,0,1,1198.66,796.19Zm-46.8,189.67c.09,2.31.43,5.52,1,9.65a62.93,62.93,0,0,1,0,7.78c0,.54-.08,1.06-.14,1.58a91.25,91.25,0,0,1-50.84,16.27h-6.05q-6.19-.57-12.24-1.29a213.08,213.08,0,0,1-50.48-12.6q-4.38-1.75-8.57-3.67-17.13-35.58-10.8-65.39c1-3.19,2.1-6.46,3.39-9.79a191.31,191.31,0,0,1,9.79-21,330.27,330.27,0,0,1,28.59-43.21q32-41.48,62.65-36.86c.41.06.81.13,1.22.21q29.85,4.63,42.12,9.58,10.51,6.2,13.25,7.06c.2-.68.34-1.25.44-1.73a242.68,242.68,0,0,1-7.35,30.67q-3.6,12.39-11.95,36.87Q1141.78,955.19,1151.86,985.86Z" style="fill:#ffdb59;fill-rule:evenodd"/><path d="M1024.54,1003.58q-9.21-3.75-16.7-6.63-4.73-2-10.37-4.25c-.09-1.34-.19-2.71-.29-4.1q-1.56-22.14-10.66-46.38,13-20,16.42-34.27,5.76-24.48,0-45.23t-10.66-33.41q-5.17-13.39-11.23-30.39-14.4-41-18.87-52.71,22.19-2,36.44-14.4,16.27-14.55,22-42.63a33.11,33.11,0,0,0,.72-6.77q.58-14.4-10.65-29.23l11.95.28q4.47,5.63,8.5,10.95,10.65,14,10.8,26.93.15,17.86-8.64,35.86-8.64,18.15-5.91,41.62,2.49,21.42,22.33,26.36a42.87,42.87,0,0,0,4.32.86q24,3.6,41.33-7.63t32.69-8.21a36,36,0,0,1,7.49,2.74,103.44,103.44,0,0,1,14.69,9.07q13.68,9.93,21.75,11.67,6.48,1.29,26.64-7.49.28,22.89-22.47,38.88c-.09,0-.19.1-.28.29a8.68,8.68,0,0,1-.15,1.44q-.29,2.6-.57,5.62c-.1.48-.24,1.05-.44,1.73q-2.73-.87-13.25-7.06-12.27-4.94-42.12-9.58c-.41-.08-.81-.15-1.22-.21q-30.69-4.62-62.65,36.86a330.27,330.27,0,0,0-28.59,43.21,191.31,191.31,0,0,0-9.79,21c-1.29,3.33-2.41,6.6-3.39,9.79Q1007.41,968,1024.54,1003.58Z" style="fill:#fd9c3c;fill-rule:evenodd"/><path d="M1610.7,1449.75a23.73,23.73,0,0,0,1.59-13.83l-11.67-8.06q36.17-11.83,59.05-17.29,2.63-.72,6.26-1.8,4.36-1.29,10.16-3.09,10.52-2.88,21.17-5.47a127.74,127.74,0,0,1,15.7-3.75q8.05,3.75,13.82,6.77-9.08,4.17-28.23,13.68l-.57.29q-40.59,19.83-58.76,35.43c1,.67,2.21,1.44,3.45,2.3q2.6,1.59,8.07,1.87,4.47.59,31.68-3.88,23.47-4.18,38.17-7.06,3-.52,21.53-6.91l4.1-1.44a16.72,16.72,0,0,1,4.18-1.3c-.19.48-.39.91-.58,1.3a21,21,0,0,1-12.24,10.65q-24,9.94-43.63,14.12-24.35,5.48-45.23,3.16l-23.62.72a135,135,0,0,0-17-.43q-12.06.55-15.63.51,10.24-5.65,14.62-11.74Q1609.13,1451.91,1610.7,1449.75Zm-334.2-87.64c-.41.31-.82.62-1.22.94q-20.16-15.12-14.26-52.43,4.85-19.12,10.66-48.1v-.14q1.15-6,2.38-12.31,20.76,8.68,34.06,12.74,15,5.1,31.11,10a48.49,48.49,0,0,0-12.68,5.4q-8.07,4.89-17.71,14.83t-18,19.3a115.73,115.73,0,0,0-14.12,18.29q-3.45,5-3.46,14.69Q1273.55,1350.59,1276.5,1362.11ZM1237,924.65q21.1-5.8,38.17-1.08,24.93,6.87,41.33,36.08a135.17,135.17,0,0,1,7.35,14.76,122.56,122.56,0,0,1,8.2,29.38,134,134,0,0,1-.43,41.12q-.31,1.77-.57,3.45-3.91,22.92-2.31,31a306.05,306.05,0,0,0,1.51,36.44q1.13,11.36,3.1,22.68t4.82,22.54q1.38,5.57,3,11.09,3.66,16.15,19.94,24.41a59.87,59.87,0,0,0,8.07,3.31q11.67,3.93,27.94,4.9h.14a2.85,2.85,0,0,0,.51.07q49.11,2.31,66.25-2.88a184.89,184.89,0,0,0,17.85-5.33c.53,3.64,1.17,7.29,2,11a33.5,33.5,0,0,0-10.3-1.15l-4.32.28a24.38,24.38,0,0,0-5.18.29,32.46,32.46,0,0,0-5.33.15c-1.44.09-3.07.28-4.9.57a29.25,29.25,0,0,0-4.75.72,34.29,34.29,0,0,1-4.75.58,30.68,30.68,0,0,1-4.32,1.29c-1.25.39-2.55.77-3.9,1.16a54.21,54.21,0,0,0-6.19,2.73,59.7,59.7,0,0,0-7.63,3.46,16,16,0,0,0-3.6,2.3c-1.06.67-2.16,1.39-3.31,2.16a13.39,13.39,0,0,0-3,2.31,18.15,18.15,0,0,0-2.16,1.58,20.8,20.8,0,0,1-2.37,1.87,142,142,0,0,0-25.57-10.8q-6.33-1.73-13-2.88-2.73-3.45-31.4-17.14-17.85-9.21-32.83-15.41a81.43,81.43,0,0,0-12.67-4.89q-2.31-1.15-4.18-1.88v-.28a348,348,0,0,0,4.61-42.34q1-29.1,2-43.93,3.6-47.23,17.86-76.76,1.44-3,3.17-5.91a82,82,0,0,0-1-22.46q-6.33-25.21-31.83-43.79a72.79,72.79,0,0,0-16.7-9.07q-26.65-9.07-46.81,20c-.5,1.16-1,2.34-1.44,3.53.14-.94.28-1.88.43-2.81q5-14.12,18.15-26.07C1236.54,924.75,1236.68,924.65,1237,924.65Zm-460,53q4,2.88,10.23,10.8-2.31,3.31-4.47,6.63l-.72,1-5.32,7.77L766.17,1001V981.83a21.27,21.27,0,0,1,3.6-2.45A14.65,14.65,0,0,1,777,977.65Zm710.23,243,.36,1.08c.26.82.53,1.64.8,2.45a.52.52,0,0,1,.07.15,179.12,179.12,0,0,0,8.57,21.09,28,28,0,0,1-6.41,2.88,21.42,21.42,0,0,0-3.6,1q-4.46,1.37-8.14,2.16c-1.74-.4-3.44-.79-5.11-1.15h-.14a15.13,15.13,0,0,1-1.88-.57l-24.34-9.22c-.09-.29-.24-.44-.43-.44-.38-2-.43-3.16-.14-3.45.19-.58.33-1.06.43-1.44a10.34,10.34,0,0,1,.72-2.74q1.15-1.58,6.77-5.76a1.36,1.36,0,0,1,.86-.57,2.53,2.53,0,0,0,.72-.29,1.41,1.41,0,0,0,1-.43c1.35-.39,2.59-.72,3.74-1,1-.2,2-.39,3-.58,1.15-.38,2.35-.72,3.6-1a14.31,14.31,0,0,0,2.59-.29h.29a1.62,1.62,0,0,0,.58-.28h1.29a47,47,0,0,1,5.33-1.44q2.88-.72,6-1.44a8.31,8.31,0,0,1,2.45-.72,1.59,1.59,0,0,1,.29-.15C1486.77,1219.16,1487,1219.88,1487.2,1220.61Zm-33,214a14.73,14.73,0,0,1-2.88,10.65q-35,6.63-53,10.23a4.58,4.58,0,0,1-1.29.29,270.78,270.78,0,0,0-27.51,7.48q-12.83,5.06-19.3,5.76-11.81,2.46-19.73-2.16,5.32-7.49,8.21-12.38a76.08,76.08,0,0,1,12.82-2.88q27.22-4,34.27-18.72a25,25,0,0,0,2.31-8.5q.72-9.95-13.4-21.6-6.48-5-9.93-8.36v-.29a336.26,336.26,0,0,1,41.62,22.76q8.64,2,20.59,0a141.81,141.81,0,0,0,20.17-3.74q1.67,4.83,2.88,8.42,3.45,9.95,3.45,10.16A20.18,20.18,0,0,1,1454.15,1434.63Z" style="fill:#0d8e90;fill-rule:evenodd"/><path d="M1726.78,1403.23c2.3,1.25,4.42,2.4,6.34,3.46a59.36,59.36,0,0,1,17.71,14.4,22,22,0,0,1-.43,15.12,16.72,16.72,0,0,0-4.18,1.3l-4.1,1.44q-18.54,6.39-21.53,6.91-14.68,2.88-38.17,7.06-27.21,4.45-31.68,3.88-5.48-.29-8.07-1.87c-1.24-.86-2.4-1.63-3.45-2.3q18.16-15.6,58.76-35.43l.57-.29Q1717.71,1407.4,1726.78,1403.23Zm-246.13-217.76q.43,5.63,1.15,11.09a184.89,184.89,0,0,1-17.85,5.33q-17.15,5.19-66.25,2.88a2.85,2.85,0,0,1-.51-.07h-.14q-16.27-1-27.94-4.9a59.87,59.87,0,0,1-8.07-3.31q-16.27-8.25-19.94-24.41-1.59-5.53-3-11.09-2.82-11.27-4.82-22.54t-3.1-22.68a306.05,306.05,0,0,1-1.51-36.44q-1.61-8.05,2.31-31,.26-1.68.57-3.45a134,134,0,0,0,.43-41.12,122.56,122.56,0,0,0-8.2-29.38,135.17,135.17,0,0,0-7.35-14.76q-16.4-29.21-41.33-36.08-17.07-4.73-38.17,1.08a97.22,97.22,0,0,1,27.08-16.27q9.21-5.61,27.94-20.45,6.62-5.07,12.09-9.07,3.06-2.26,5.76-4.18a29.22,29.22,0,0,1,3.6-2q4-2.88,7.35-5.18a56.53,56.53,0,0,0,16.85,26.06q12.83,11,24,22.47,11.52,10.95,45.22,43.35l4.18,2.88,20.16,13.83,10.37,7.06,6.41-21,.07-.15,2.31-8.49,1-3.75v-.58c.47-1.82.62-5,.43-9.64q-.43-11.1-.72-18.87c-.1-3.17-.19-5.9-.29-8.21q-.43-9.64-2-14.83v-.44l1.59-3.31q2,1,4.32,2,5.61,2.6,11.23,5,48.26,27.36,40.61,125.15-2,10.95-4.75,21.32a225.6,225.6,0,0,1-9.07,27.22q-1.87,6.18-3.46,12.38c-.82,3.15-1.58,6.3-2.3,9.43a292.07,292.07,0,0,0-7.2,66.76Q1479.79,1174.52,1480.65,1185.47ZM752.92,1028.2,766.17,1001l10.52,2.88L769.34,1035l-15.7,13Zm585.73,426.3a147.22,147.22,0,0,0,7.06-14.55q2.1-4.9,4.17-10.51,10.66-26.94,14.84-35.29v.29q3.45,3.32,9.93,8.36,14.11,11.65,13.4,21.6a25,25,0,0,1-2.31,8.5q-7,14.73-34.27,18.72A76.08,76.08,0,0,0,1338.65,1454.5Z" style="fill:#1fbcbf;fill-rule:evenodd"/><path d="M1520.11,767.38q-1,7.92-9.22,14.12a123.85,123.85,0,0,1-15.55,9.21q-9.93,5-23.76,2.74-8.92-1.29-25.35-7.63-6-2.7-10.87-4.54-8.86-3.45-13.61-4.1-10.23-2.88-16.13-1.59a41.76,41.76,0,0,0-7.35,1.3,113.57,113.57,0,0,1-12.1-17.57,229.67,229.67,0,0,1-11.66-20q-5.61-10.95-11.23-22.9,3.73-3.6,13.53-9.94a23.22,23.22,0,0,1,2.31,5,49.82,49.82,0,0,1,3,6.92,128,128,0,0,0,7.64,12,112.12,112.12,0,0,0,12.81,14.11q21.26,19.2,59.7,24.7,4.51.63,9.29,1.08a158.62,158.62,0,0,0,45.94-2.59A12.1,12.1,0,0,1,1520.11,767.38Zm-166-41h.43q-.87,4.45,0,19.58t7.34,32.7a169,169,0,0,0,17.5,33.91c.74,1.14,1.48,2.27,2.24,3.39a84.91,84.91,0,0,1-8.93,5.9,28.55,28.55,0,0,1-3-2.73A29,29,0,0,1,1363,808a48,48,0,0,0-3.32-11.67,29.53,29.53,0,0,0-3.6-5.62q-5.33,3.75-5.9,12a111.82,111.82,0,0,0-1,13.54l-1.73-1.3q-11.09-14.83-10.8-36a86.91,86.91,0,0,1,8.93-38.31c.7-1.38,1.42-2.72,2.16-4A118.38,118.38,0,0,1,1354.06,726.34ZM989,324.67a44.8,44.8,0,0,0,19.73,3.89h.14a44,44,0,0,0,19.59-4.47l.14,3.6q0,6-5.61,10.08a25.45,25.45,0,0,1-27.94.58q-5.91-4-5.91-10.08Zm-146.61,572a149.42,149.42,0,0,1-32.05-25.42q-2.7-2.84-5.25-5.83a122.36,122.36,0,0,1-16.13-24.05,108.37,108.37,0,0,1-5.33-13h-.15c-.19-.48-.62-1.78-1.29-3.89l-.43-1.44q-24.5,30.11-44.51,38.45t-21.17,9.22a2.6,2.6,0,0,1-.86-.15h-.43a.46.46,0,0,0-.29-.14l-7.2-6a27.47,27.47,0,0,1-1.87-3.6q3.74-1,17.13-7.77,13.4-6.92,42.92-41.77,27.31-32.25,49.83-43.28,1.82-.9,3.6-1.65,23.91-10.1,29.82-12.1a111.86,111.86,0,0,1,15.84,12,2.17,2.17,0,0,0,.43.58,65.7,65.7,0,0,1,4.46,7.63q-25.48,2.44-43.2,14.69c-1.26.85-2.55,1.74-3.89,2.66q-13.19,9.29-31,23.55,3.18,4.75,7.93,12.24,7.63,12,10.94,15.27a57,57,0,0,0,8.5,10.87Q829.2,864.43,846.82,873A136.77,136.77,0,0,0,869,881.3q-3.45,4.47-7.92,9.22l-1.87,1.87Q853.17,893.7,842.36,896.71Zm74,72.3v-.29a247.69,247.69,0,0,0-11.3-58,261,261,0,0,0-12.89-32.26q-1.89-4-11.31-21.53l-1.8,6.84c-.29.77-.62,1.59-1,2.45q-23.76-4.6-39.46-15.84a74.68,74.68,0,0,1-13.82-12.67q-1.49-1.67-2.88-3.46-7.2-9.94-10.23-13.4l.87-2.73q3.32.6,15,5.54,8,3.48,20,9,7.46,3.07,14.4,5.4a160.78,160.78,0,0,0,18.87,5.25H881V845a15,15,0,0,0,2.16-.58,371.42,371.42,0,0,1,27,57.32,270.27,270.27,0,0,1,15.63,66.76q.5,5.06.79,10.08a45.21,45.21,0,0,0-10.16-4.25C916.42,971.45,916.42,969.67,916.38,969Zm53.15,135q-4.47,9.64-9.8,10.08-12.09.86-18-6a17.53,17.53,0,0,1-1.44-2.09l-.07-.14q3-27.85,7.42-52.35,5.9-25.79-.87-47.39a60.74,60.74,0,0,0-4.1-10.15q-1.47-13.71-4.4-28.59-7.14-36.33-22.89-79.35-1.7-4.57-3.46-9.22,2.08,3.54,4,7.06a314.69,314.69,0,0,1,31.47,80.14c1.18,4.88,2.24,9.77,3.17,14.7q2.16,11.49,3.45,23.18,1.15,10.4,1.59,21a348.65,348.65,0,0,1-4.25,70.28v.21c0,.34,0,.68-.07,1Q950.79,1111.31,969.53,1104Zm29.23-77.77a80.24,80.24,0,0,1-1.51,11.23q-4.39,19.85-19.23,20.88a201.43,201.43,0,0,0,2.89-26.5q.39-9,0-18A223.44,223.44,0,0,0,977.52,984q-2-11-5.11-22c-.2-.65-.39-1.29-.58-1.94q-14.62-50.55-52.28-103.84-3.36-4.78-6.91-9.58,3.52,3.84,6.91,7.71,40.11,46.38,57.18,101.89a275.17,275.17,0,0,1,7.63,31,290.34,290.34,0,0,1,4,29.31q.76,8.89,1,18c0,1.11,0,2.21.07,3.31q2.69,5,5.76-1.22A57.92,57.92,0,0,0,998.76,1026.19Zm469.22,281q5.67,2,10.51,3.89,8.71,3.15,19.16,15.12,3.36,3.87,6.91,8.64,8.2,11.52,26.21,41.62,5.45,8.22,11,15.55,32.63,43.58,67.83,57.33l1.15.43q-1.58,2.16-3.6,4.75-4.38,6.07-14.62,11.74l-.36.21q-17,3.88-31.11-3.6-13.53-7.92-34.13-14.4-31.39-10.65-33-11.52-8.93-4.61-14.4-8.06a45.85,45.85,0,0,1-5.76-3.89,69.62,69.62,0,0,1-7.92-6.2,48,48,0,0,1-8.79-10.22q-18.29-51.27-59.33-83.82,0-32.7,28.22-31.69,8.5,2.71,16.14,5.19l3.74,1.87q2.73,1,5.76,2.16c1.54.38,3.12.87,4.75,1.44,2.59.77,5.19,1.63,7.78,2.59C1465.39,1306.57,1466.68,1306.86,1468,1307.17Z" style="fill:#003151;fill-rule:evenodd"/><path d="M1354.06,726.34a68.93,68.93,0,0,1,9.22-9.94q5.61,12,11.23,22.9a229.67,229.67,0,0,0,11.66,20,113.57,113.57,0,0,0,12.1,17.57,34.15,34.15,0,0,1,.44,15.55,33.38,33.38,0,0,1-5,11.09,53.14,53.14,0,0,1-12.17,12.39c-.76-1.12-1.5-2.25-2.24-3.39a169,169,0,0,1-17.5-33.91q-6.48-17.72-7.34-32.7t0-19.58Zm22.75-19.88a55.27,55.27,0,0,1,31.11-7.2q33.27,2,63.37,20.74a166.76,166.76,0,0,1,36.87,31.61q6.21,7.1,11.95,15v.72a12.1,12.1,0,0,0-2.59.29,158.62,158.62,0,0,1-45.94,2.59q-4.77-.45-9.29-1.08-38.43-5.49-59.7-24.7a112.12,112.12,0,0,1-12.81-14.11,128,128,0,0,1-7.64-12,49.82,49.82,0,0,0-3-6.92A23.22,23.22,0,0,0,1376.81,706.46Zm-12.09,687.69q-4.18,8.36-14.84,35.29-2.07,5.6-4.17,10.51a147.22,147.22,0,0,1-7.06,14.55q-2.88,4.9-8.21,12.38a10.35,10.35,0,0,1-6.91-6.62q-1.59-4.89,3-13.1l7.78-17.57q5-11.67,7.49-17.43Q1350.6,1389.69,1364.72,1394.15Z" style="fill:#00558c;fill-rule:evenodd"/><path d="M1501.82,1047.36q3.47,19.2,6,32.62,2.88,14.46,4.75,22.11,9.66,37.15,22.9,46.8,17.71,13,71.29,44.93,23.06,13.7,35.86,23.62a36.72,36.72,0,0,0-4.32.87,30.65,30.65,0,0,0-7.63,3.17,29.18,29.18,0,0,0-8.5,7.63q-6.33-3.6-14.11-7.78-42.19-21.32-43.35-22-24.19-13-40.18-25.64-18.58-14.54-23.77-26.93a120.27,120.27,0,0,1-7-26.64q-2-17-3.17-26.29c0-.36-.1-.72-.14-1.08-.1-.76-.49-2.69-1.16-5.76q1.59-6.2,3.46-12.38A225.6,225.6,0,0,0,1501.82,1047.36Zm-1084,181.17-66.18-130.77q-3-5.9,2.6-4.89l5.18,1L550.58,1131q5.61,1.15,8.64,7.06L633.53,1285q2.88,5.76-2.74,4.61l-196.08-38.09-.22-.08a10.93,10.93,0,0,1-7.48-5,14,14,0,0,1-1-1.73L419.08,1231ZM1506.57,1026q7.64-97.78-40.61-125.15a131.14,131.14,0,0,1,16.56,8.79,88.34,88.34,0,0,1,25.35,24.48,64.47,64.47,0,0,1,7.92,17.86,168.38,168.38,0,0,1,3.32,20.45q0,5.61-2.31,20.88-3.32,14.26-4.9,19.44Q1509.89,1017.83,1506.57,1026Zm-55.15-76.33-1,3.75a139.48,139.48,0,0,1-10.8-10.81V927.53a46.54,46.54,0,0,0,3.6,9.94,51.73,51.73,0,0,0,4.32,10.22Q1450.41,953,1451.42,949.71Zm-26.36-4.46q-8.28,10.1-13,15.77l-1,1.22-4.18-2.88q4.75-11,9.51-22.32ZM766.17,1001l-13.25,27.22-1-25.2q8.22-5.62,14.26-9.79Zm26.93,14.55L769.34,1035l7.35-31.11,5.32-7.77,4.61,8.78Q790.22,1011.35,793.1,1015.53Zm-66.82,13.39q-3.88-28.37,1.87-47.52,7.79-26.5,32.84-28.52-11.82,15-20.89,36.44Q733.92,1003.72,726.28,1028.92Zm5.18,145.32-9.36.57,4.75-28.66Q730,1165.89,731.46,1174.24Zm-61.78,85.47-1.15.22-5.91.29-35-6.19-4.76-9.3,20.31-4h2.74l15.12,2.52a24.67,24.67,0,0,0-6.2,8.58,14,14,0,0,0,1.16,2.73,6.8,6.8,0,0,0,5.47,3.46h.86a13.63,13.63,0,0,0,2-.15,39.64,39.64,0,0,0,8.21-2,5.2,5.2,0,0,0-2.74,3A2.8,2.8,0,0,0,669.68,1259.71Zm1.58,4.83.36.36-2.09.65,3.46.57a12.42,12.42,0,0,0,3.75,2.09l-.87.07v.29l-6.34-.86-.28-1.16-4.47.44-6.77-.87-8.49,2.31,10.08,1.15,8.49-1.44h.29v.72l-6.62,1.44,23.91,4,1.44.15,8.78-2-5.76-.72.58-.29H691l-.28-.29,2.73-.29.29.87,7.42,1,3.38,1.15-57.61,10.66-4.89-.15.86,1.44h.29l.29,1.73,10.37-.57,58.47-10.66q3.63,1.13,7.63,2.3,6.64,1.95,12.68,3.24l-13.54,2.45a149.22,149.22,0,0,0-37,.22q-22.26,3.9-35.06,12.31a27.07,27.07,0,0,1-3.1-.22,25.22,25.22,0,0,1-3.17-.72l2.45-3.16.29-1.44v-2.16l-2.6-5.26c.53-.41.67-1.13.44-2.16l2.59.36h1.73l3.6-.86-8.57-1.3-.22-.43-.29-.58,11,2.16,9.65-1.58-14.55-3.17h-.57l-6.34.86-.36-.72,3.67-.43-1.15-.72-3.24-.21-.36-.8.29.15,1.15.14,8.5-2-9.08-1.58h-1l-1.3.43-.79-1.51,6.12.5,8.5-1.15-.72-.29-9.08-2-5.61,1.36-.22-.5,3.1-.72-.87-.72-3.24-.5-.21-.44,10.08-1.8-9.94-1.58-1.66.43-.86-1.73,3.67.58,9.79-1.87-15.33-2.45-.72-1.44,41.69,7.27a7.23,7.23,0,0,0,.79,1.23l-7.41-1.44-1.44-.15L652,1264.68l10.37,1.3Zm-18.72,5-8.35,1.73,8.35,1.44h1.3l8.78-1.3v-.29l-8.5-1.73Zm3.74,4,17.86,2.74,9.94-1.3-17.57-3.31-1.44-.15-8.79,1.73Zm-9.07-9.36-1,.29-8.78,1.44,8.21,1.87,9.93-1.87Zm-.72-4.61-9.94,1.87,11.24,2.16,12.1-1.29-11.81-2.59Zm3.46,16.71,10.22-1.3-8.49-1.87-10.23,1.87Zm22,.43v-.29l-9.07-1.44-9.36,1.88.29.28,10.22,1.59,8.5-2Zm-210.84-83.1q3.74,9.94,14,16.28,10.08,6.33,20.74,5.32,10.51-.85,15.41-8.49t1-17.57q-3.9-9.95-14.12-16.42t-20.59-5.48q-10.67,1-15.56,8.65T461.14,1193.68Z" style="fill:#bcc1ee;fill-rule:evenodd"/><polygon points="1448.82 897.14 1448.82 897.58 1448.54 897.87 1448.82 897.14" style="fill:#ffb087;fill-rule:evenodd"/><path d="M1656.57,1219a63.68,63.68,0,0,1,10.3,4.1l-.43.43a11.07,11.07,0,0,0-2.45,2.74,22.53,22.53,0,0,0-1.58,1.73,26.91,26.91,0,0,1-3.46,3.89q-2.88,2.58-5,4.32a37.6,37.6,0,0,0-4,3q-1.44,1.88-4.89,7.34v2.17a3.21,3.21,0,0,1,.29,1.44,47.47,47.47,0,0,0,3.74,10.65,68.13,68.13,0,0,0,4.18,7.78q3.86,7.22,18.14,12.75a47.66,47.66,0,0,1-6.19,1.65q-17.43,3.32-35.43-8.64l-5.33-2.74a5.57,5.57,0,0,1-.72-.86c-.42-.5-.83-1-1.22-1.51a33.76,33.76,0,0,1-3.67-6.12,38.2,38.2,0,0,1-2.59-9.36,39.3,39.3,0,0,1,2.59-18.73,1.15,1.15,0,0,0,.14-.43,5,5,0,0,1,.29-.5,22.32,22.32,0,0,1,1.87-3.1l.58-1,.57-.86a29.18,29.18,0,0,1,8.5-7.63,30.65,30.65,0,0,1,7.63-3.17,36.72,36.72,0,0,1,4.32-.87,36.13,36.13,0,0,1,7.78,0A62.14,62.14,0,0,1,1656.57,1219Z" style="fill:#fff;fill-rule:evenodd"/><path d="M1321.15,1444.35q-18.15-10.63-29.59-32.77-9.37-17.71-14.84-48.53c-.08-.32-.15-.63-.22-.94q-3-11.52-3.24-16.78,0-9.64,3.46-14.69a115.73,115.73,0,0,1,14.12-18.29q8.34-9.36,18-19.3t17.71-14.83a48.49,48.49,0,0,1,12.68-5.4q4.76,1.5,9.64,3,9.23,1.88,18.3,3.89a126,126,0,0,0,23.33,1.73q2.58.78,5.11,1.58,16.37,5.22,30.31,10.08-28.22-1-28.22,31.69,41,32.55,59.33,83.82l-9.93,4.61a141.81,141.81,0,0,1-20.17,3.74q-12,2-20.59,0a336.26,336.26,0,0,0-41.62-22.76q-14.12-4.45-22.9,18-2.46,5.76-7.49,17.43l-7.78,17.57Q1323.78,1445.86,1321.15,1444.35Z" style="fill:#010613;fill-rule:evenodd"/><path d="M1390.5,1281.39a126,126,0,0,1-23.33-1.73q-9.09-2-18.3-3.89c-.42-1.52-.83-3.06-1.22-4.61-.52-1.94-1-3.91-1.51-5.9a46.6,46.6,0,0,1,3.45-32.55,40.44,40.44,0,0,1,16.28-16.85c1.15-.58,2.25-1.15,3.31-1.73q6.63,1.15,13,2.88a142,142,0,0,1,25.57,10.8c-.7.45-1.45.89-2.24,1.3a60.4,60.4,0,0,1-6.33,3.74,16.83,16.83,0,0,0-4.9,2.45,83.38,83.38,0,0,0-6.91,6.63l-.29,2.3a9.22,9.22,0,0,1-.15,1.58,55.87,55.87,0,0,0,1.88,12.25q1.88,8.36,3.89,12.24,2.44,3.6,3,3.89l.15.29q1.86,1.57,3.74,3c.77.67,1.68,1.44,2.74,2.31.36.25.75.49,1.15.72q-2.61.54-5.33.86l-1.73-.29Q1393.45,1281.3,1390.5,1281.39Z" style="fill:#e8effd;fill-rule:evenodd"/><path d="M1716.7,1213.41a12.35,12.35,0,0,1,5.76-2.3,50.49,50.49,0,0,0-4.61,2.16A5,5,0,0,1,1716.7,1213.41Zm-245.55,8.79a13.57,13.57,0,0,1,6.62-1.44,47,47,0,0,0-5.33,1.44Z" style="fill:#f99269;fill-rule:evenodd"/><path d="M986.52,942.22q9.11,24.25,10.66,46.38c.1,1.39.2,2.76.29,4.1q1.32,18.22,1.44,27.58,0,3.62-.15,5.91c-.12-2-.27-4.09-.43-6.13q-1.17-14.55-3.6-28.51a278.16,278.16,0,0,0-11.59-44.29q-19.89-56-63.95-100.38-11-11-23.4-21.31a19.16,19.16,0,0,0-.86-4.76,81.22,81.22,0,0,1,8.2,6.05,182.57,182.57,0,0,1,15.49,14.19q11.1,11.18,24.12,27a262.63,262.63,0,0,1,37.73,59.63Q983.82,935,986.52,942.22Zm-74.6-63.51q1.77,4.65,3.46,9.22,15.75,43,22.89,79.35,2.93,14.88,4.4,28.59a46.57,46.57,0,0,0-5.12-7.85q-1.34-10.1-3.24-20.31a451.43,451.43,0,0,0-20.81-74.09q-7.66-20.77-17.57-42.13ZM978,1058.3q-1.83,12.32-3.24,20.74c-.46,3-.89,5.71-1.29,8q-1.14,6.24-1.8,8.86a64.59,64.59,0,0,1-2.16,8.07q1.22-8.16,2.09-16.21c.29-2.42.56-4.84.79-7.27a401.5,401.5,0,0,0,1.65-50.76q-.34-9.54-1.15-18.87-1.36-16.05-4.17-31.61-.93-5.09-2-10.09c-.1-.49-.2-1-.29-1.44-.42-1.91-.85-3.81-1.3-5.68a326.74,326.74,0,0,0-45.58-105.28q-3.34-5.13-6.91-10.16,3.54,4.8,6.91,9.58,37.66,53.3,52.28,103.84c.19.65.38,1.29.58,1.94q3.09,11.07,5.11,22a223.44,223.44,0,0,1,3.39,29.81q.39,9,0,18A201.43,201.43,0,0,1,978,1058.3Z" style="fill:#2591d8;fill-rule:evenodd"/><path d="M1028.43,324.09a44,44,0,0,1-19.59,4.47h-.14A44.8,44.8,0,0,1,989,324.67a29.4,29.4,0,0,1-5.62-3.17q-10.65-7.49-10.8-18.15L972,273q.42,10.08,10.8,17.42t25.34,7.06h.15q14.84-.29,25.2-7.92,9.94-7.63,10.23-17.72l.57,30.39q.15,10.67-10.22,18.44A46.26,46.26,0,0,1,1028.43,324.09ZM869,881.3A136.77,136.77,0,0,1,846.82,873q-17.62-8.52-28.08-19.23a57,57,0,0,1-8.5-10.87q-3.32-3.32-10.94-15.27-4.75-7.49-7.93-12.24,17.79-14.28,31-23.55c1.34-.92,2.63-1.81,3.89-2.66q17.71-12.24,43.2-14.69,6.87,13.63,9.44,33.34.86,6.75,1.22,14.19c0,.22,0,.44,0,.64q.31,7.59.72,20.67A160.78,160.78,0,0,1,861.94,838q-6.95-2.32-14.4-5.4-12-5.53-20-9-11.65-4.95-15-5.54l-.87,2.73q3,3.47,10.23,13.4,1.4,1.8,2.88,3.46a74.68,74.68,0,0,0,13.82,12.67q15.71,11.24,39.46,15.84c.39-.86.72-1.68,1-2.45A64.68,64.68,0,0,1,869,881.3Zm-20.3-127q-5.91,2-29.82,12.1-1.78.75-3.6,1.65-22.51,11-49.83,43.28-29.52,34.85-42.92,41.77-13.39,6.76-17.13,7.77a51,51,0,0,1-2.6-7.34q-3.6-19.44-1.29-34a108.33,108.33,0,0,1,10.22-31.4q10.95-21.17,25.21-33.84A87.63,87.63,0,0,1,748,747.36q23.76-12.37,54.43-8.78c3.29.37,6.51.88,9.65,1.51a110.88,110.88,0,0,1,23.48,7.27A113.93,113.93,0,0,1,848.7,754.28ZM969.53,1104q-18.74,7.35-18.22-7.71c0-.33.05-.67.07-1V1095a348.65,348.65,0,0,0,4.25-70.28q-.45-10.57-1.59-21-1.29-11.68-3.45-23.18c-.93-4.93-2-9.82-3.17-14.7A314.69,314.69,0,0,0,916,885.77q-2-3.53-4-7.06l-16-27.22q9.9,21.36,17.57,42.13a451.43,451.43,0,0,1,20.81,74.09q1.91,10.23,3.24,20.31a40.19,40.19,0,0,0-11-9.43q-.3-5-.79-10.08a270.27,270.27,0,0,0-15.63-66.76,371.42,371.42,0,0,0-27-57.32,18.33,18.33,0,0,0,7-4.6,21.54,21.54,0,0,0,2.74-3.32,7.25,7.25,0,0,0,.72-1.15,18.3,18.3,0,0,0,2.16-8.79v-1q12.45,10.27,23.4,21.31,44.05,44.36,63.95,100.38a278.16,278.16,0,0,1,11.59,44.29q2.43,14,3.6,28.51c.16,2,.31,4.08.43,6.13a57.92,57.92,0,0,1-3.6,10.44q-3.07,6.21-5.76,1.22c0-1.1,0-2.2-.07-3.31q-.26-9.11-1-18a290.34,290.34,0,0,0-4-29.31,275.17,275.17,0,0,0-7.63-31q-17.07-55.5-57.18-101.89-3.37-3.87-6.91-7.71,3.55,5,6.91,10.16A326.74,326.74,0,0,1,965.13,962c.45,1.87.88,3.77,1.3,5.68.09.47.19.95.29,1.44q1.08,5,2,10.09,2.81,15.56,4.17,31.61.81,9.33,1.15,18.87a401.5,401.5,0,0,1-1.65,50.76c-.23,2.43-.5,4.85-.79,7.27Q970.73,1095.8,969.53,1104Z" style="fill:#0d69a5;fill-rule:evenodd"/><path d="M654.77,1416.55c-2.15-.78-4-1.52-5.69-2.23l4,1.58Z" style="fill:#ceab8b;fill-rule:evenodd"/><path d="M656.28,1273.61v-.29l8.79-1.73,1.44.15,17.57,3.31-9.94,1.3Zm-3.74-4,1.58-.15,8.5,1.73v.29l-8.78,1.3h-1.3l-8.35-1.44Zm18.72-5-8.93,1.44-10.37-1.3,10.09-2.16,1.44.15,7.41,1.44Zm1.73,1.58-3.46-.57,2.09-.65.08.07A9.31,9.31,0,0,0,673,1266.12Zm9.51,3a11.71,11.71,0,0,0,5-1.73,134.21,134.21,0,0,0,13.61,5.33l-7.42-1-.29-.87-2.73.29.28.29h-.28l-.58.29,5.76.72-8.78,2-1.44-.15-23.91-4,6.62-1.44v-.72h-.29l-8.49,1.44-10.08-1.15,8.49-2.31,6.77.87,4.47-.44.28,1.16,6.34.86v-.29l.87-.07a16.21,16.21,0,0,0,2.16.5A15.81,15.81,0,0,0,682.5,1269.15ZM617,1233.07l5.9,11.66,4.76,9.3.79,1.58.72,1.44,15.33,2.45-9.79,1.87-3.67-.58.86,1.73,1.66-.43,9.94,1.58-10.08,1.8.21.44,3.24.5.87.72-3.1.72.22.5,5.61-1.36,9.08,2,.72.29-8.5,1.15-6.12-.5.79,1.51,1.3-.43h1l9.08,1.58-8.5,2-1.15-.14-.29-.15.36.8,3.24.21,1.15.72-3.67.43.36.72,6.34-.86h.57l14.55,3.17-9.65,1.58-11-2.16.29.58.22.43,8.57,1.3-3.6.86H643.9l-2.59-.36c.23,1,.09,1.75-.44,2.16l2.6,5.26v2.16l-.29,1.44-2.45,3.16-102.54-18.21-75.25-13.4-17.5-3.09-4.46-2.31-5.76-6.48-.51-.93,196.08,38.09q5.63,1.15,2.74-4.61l-74.31-146.9q-3-5.91-8.64-7.06l-191.12-37.16-.29-.57q-3-5.76,2.6-4.75l196.29,38.16q5.63,1.15,8.64,6.92l2.74,5.32c.14.24.28.48.43.72l40,79.36Zm30.24,31.18,8.35,1.73-9.93,1.87-8.21-1.87,8.78-1.44Zm-.72-4.61,1.59.15,11.81,2.59-12.1,1.29-11.24-2.16Zm3.46,16.71-8.5-1.3,10.23-1.87,8.49,1.87Zm22,.43h.58l-8.5,2-10.22-1.59-.29-.28,9.36-1.88,9.07,1.44Z" style="fill:#838ad2;fill-rule:evenodd"/><path d="M1027.28,167.54l-.29-.14q6,1,8.93,7.49a32.25,32.25,0,0,1,2.3,16.42q-1.14,9.49-2.59,19.3-2,11.94-3.45,23.33-1.15,8.06-2,16a251,251,0,0,1-6.05,29.24,6.62,6.62,0,0,1-2.59,3.45,6.25,6.25,0,0,1-4.32.44,5.42,5.42,0,0,1-3.32-2.6,5.81,5.81,0,0,1-.57-4.32,233.93,233.93,0,0,0,5.76-27.65v-.14q1-7.92,2.16-15.84,1.29-11.67,3.31-23.91,1.31-9.36,2.74-18.44a26.66,26.66,0,0,0-1.73-10.94l.29.29a1.7,1.7,0,0,0-1-1,.56.56,0,0,0-.43-.15,2.05,2.05,0,0,0-2.31.58l-.28.14a47.41,47.41,0,0,0-7.06,8.65q-6.35,9.49-17.28,5.9a14.38,14.38,0,0,1-7.06-5.18l.14.14c-1.72-2.11-3.36-4.18-4.89-6.19a1.62,1.62,0,0,0-1.87-.87,1.59,1.59,0,0,1-.72.15,5.65,5.65,0,0,0-.87,2.45,4.11,4.11,0,0,0-.14,2.44q1.44,12.1,3.31,23.62,2.16,12.39,4.46,25.21,2.46,14.69,4.61,29.66,1.15,6.91,1.73,14.12a5.48,5.48,0,0,1-1.29,4.18,4.67,4.67,0,0,1-3.61,1.87,6.17,6.17,0,0,1-4.17-1.15,5.41,5.41,0,0,1-2.16-3.75c-.39-4.7-.92-9.27-1.59-13.68h-.14q-2.16-15-4.32-29.38-2.45-13-4.47-25.35-2.16-11.52-3.6-24.05a18.16,18.16,0,0,1,.29-5.62,17.73,17.73,0,0,1,3.17-7.92h.29a8.81,8.81,0,0,1,7.63-3.89q7.49-1.57,12.53,5.33a59.15,59.15,0,0,0,4.47,5.62v.14a3.15,3.15,0,0,0,1.72,1.3,3.5,3.5,0,0,0,4.32-1.44,54.67,54.67,0,0,1,8.93-10.51Q1020.08,165.24,1027.28,167.54Z" style="fill:#fff5d2;fill-rule:evenodd"/><polygon points="848.41 324.24 826.8 287.66 949.8 243.01 848.41 324.24" style="fill-rule:evenodd;fill:url(#linear-gradient-4)"/><polygon points="821.48 66.59 929.78 158.9 798.43 106.77 821.48 66.59" style="fill-rule:evenodd;fill:url(#linear-gradient-5)"/><polygon points="739.38 161.78 928.77 197.21 739.38 224.29 739.38 161.78" style="fill-rule:evenodd;fill:url(#linear-gradient-6)"/></g></svg>